<svg width="120" height="120" viewBox="0 0 120 120" fill="none" xmlns="http://www.w3.org/2000/svg">
<g filter="url(#filter0_d)">
<path d="M71.4226 64.2852C71.4231 61.762 70.4735 59.3312 68.7629 57.4764L80.173 41.7842C80.5257 41.2992 80.6713 40.694 80.5777 40.1017C80.4842 39.5094 80.1592 38.9785 79.6743 38.6258C79.1893 38.2731 78.5841 38.1275 77.9918 38.221C77.3995 38.3146 76.8686 38.6395 76.5159 39.1245L64.9994 54.8832C62.9856 54.0776 60.7664 53.9395 58.6682 54.4891C56.57 55.0387 54.7035 56.2471 53.3432 57.9364C51.9829 59.6258 51.2005 61.7071 51.1112 63.8742C51.0218 66.0414 51.6301 68.18 52.8467 69.9757C54.0633 71.7713 55.8239 73.1293 57.8697 73.8498C59.9155 74.5703 62.1385 74.6154 64.2118 73.9784C66.2852 73.3415 68.0995 72.0561 69.3879 70.3112C70.6763 68.5664 71.3708 66.4542 71.3694 64.2852H71.4226ZM55.6905 64.2852C55.6905 63.1753 56.0196 62.0902 56.6363 61.1674C57.2529 60.2445 58.1294 59.5252 59.1549 59.1004C60.1803 58.6757 61.3087 58.5645 62.3973 58.7811C63.4859 58.9976 64.4859 59.5321 65.2707 60.3169C66.0556 61.1018 66.59 62.1017 66.8066 63.1904C67.0231 64.279 66.912 65.4073 66.4872 66.4328C66.0625 67.4582 65.3432 68.3347 64.4203 68.9514C63.4974 69.568 62.4124 69.8971 61.3025 69.8971C59.8152 69.8936 58.3898 69.3012 57.3381 68.2496C56.2864 67.1979 55.694 65.7725 55.6905 64.2852Z" fill="#A3C156"/>
<path d="M115.001 35.9195L109.057 26.7436C108.897 26.4927 108.689 26.2763 108.445 26.1073C108.201 25.9382 107.925 25.82 107.634 25.7595C107.048 25.6318 106.436 25.7418 105.932 26.0653L98.5775 30.7331C94.2371 25.766 88.9361 21.729 82.9938 18.8653C77.0515 16.0016 70.591 14.3704 64.0016 14.0701V12.3945H73.3105C73.9101 12.3945 74.4851 12.1563 74.9091 11.7324C75.333 11.3084 75.5712 10.7334 75.5712 10.1338V2.26109C75.5712 1.66151 75.333 1.08648 74.9091 0.662507C74.4851 0.238536 73.9101 0.00035207 73.3105 0.00035207H50.0116C49.7113 -0.00494684 49.4131 0.0496156 49.1342 0.160854C48.8553 0.272091 48.6013 0.437776 48.3871 0.648234C48.173 0.858693 48.0029 1.10971 47.8868 1.38663C47.7707 1.66355 47.7109 1.96082 47.7109 2.26109V10.1338C47.7109 10.4307 47.7694 10.7246 47.883 10.9989C47.9966 11.2732 48.1632 11.5224 48.3731 11.7324C48.583 11.9423 48.8322 12.1088 49.1065 12.2224C49.3808 12.336 49.6748 12.3945 49.9717 12.3945H59.4801V16.1048C59.4801 16.1048 59.4801 16.1048 59.4801 16.1979C59.4801 16.291 59.4801 16.2644 59.4801 16.291V24.7621C59.4801 25.3617 59.7183 25.9367 60.1422 26.3607C60.5662 26.7846 61.1412 27.0228 61.7408 27.0228C62.3404 27.0228 62.9154 26.7846 63.3394 26.3607C63.7634 25.9367 64.0016 25.3617 64.0016 24.7621V18.6182C71.9749 19.0238 79.6901 21.5787 86.3297 26.0121L82.2869 31.265C81.9221 31.7419 81.7608 32.3437 81.838 32.9392C81.9152 33.5346 82.2248 34.0753 82.6992 34.4434C83.0841 34.7314 83.5485 34.8939 84.029 34.9088C84.3766 34.9083 84.7194 34.8277 85.0308 34.6731C85.3422 34.5186 85.6137 34.2944 85.8243 34.0178L89.907 28.6984C96.0347 33.6981 100.721 40.2388 103.485 47.6487L96.8355 49.6435C96.3249 49.8056 95.8884 50.1437 95.6039 50.5975C95.3193 51.0514 95.2052 51.5916 95.2819 52.1218C95.3585 52.652 95.621 53.1377 96.0224 53.4924C96.4238 53.8472 96.9382 54.0478 97.4738 54.0586C97.6945 54.0613 97.9143 54.0299 98.1254 53.9655L104.894 52.0106C106.838 59.5722 106.751 67.5131 104.642 75.0303L98.0855 72.57C97.5332 72.3957 96.9351 72.4399 96.4145 72.6936C95.8938 72.9473 95.4904 73.3911 95.2874 73.9335C95.0844 74.4759 95.0974 75.0756 95.3236 75.6087C95.5497 76.1419 95.9719 76.5679 96.503 76.799L103.152 79.3124C100.221 86.6962 95.3735 93.1644 89.109 98.0499L85.1195 92.7305C84.7453 92.3113 84.2285 92.0464 83.6696 91.9876C83.1108 91.9287 82.5501 92.0801 82.0968 92.4122C81.6435 92.7443 81.3302 93.2333 81.2178 93.7838C81.1054 94.3344 81.2021 94.9071 81.489 95.3902L85.3722 100.71C78.954 104.764 71.5971 107.091 64.0148 107.465V100.882C64.0148 100.283 63.7767 99.7079 63.3527 99.2839C62.9287 98.8599 62.3537 98.6217 61.7541 98.6217C61.1545 98.6217 60.5795 98.8599 60.1555 99.2839C59.7316 99.7079 59.4934 100.283 59.4934 100.882V109.739C59.4934 110.036 59.5519 110.33 59.6655 110.604C59.7791 110.879 59.9456 111.128 60.1555 111.338C60.3655 111.548 60.6147 111.714 60.889 111.828C61.1633 111.942 61.4572 112 61.7541 112C69.8502 112.007 77.8216 110.006 84.9548 106.177C92.0881 102.348 98.1605 96.8093 102.629 90.0579C107.097 83.3064 109.821 75.5523 110.557 67.4898C111.294 59.4273 110.02 51.308 106.849 43.8587L114.323 39.0446C114.573 38.884 114.788 38.6758 114.958 38.4317C115.127 38.1877 115.246 37.9128 115.309 37.6226C115.372 37.3324 115.378 37.0326 115.325 36.7404C115.272 36.4481 115.162 36.1692 115.001 35.9195ZM52.2723 4.52183H71.1029V7.87304H52.2723V4.52183ZM104.894 39.7628C103.872 37.8687 102.721 36.047 101.45 34.3104L106.503 31.039L110.001 36.4647L104.894 39.7628Z" fill="#A3C156"/>
<path d="M42.6432 19.9219H29.8501C29.2505 19.9219 28.6755 20.1601 28.2515 20.584C27.8275 21.008 27.5894 21.583 27.5894 22.1826C27.5894 22.7822 27.8275 23.3572 28.2515 23.7812C28.6755 24.2052 29.2505 24.4434 29.8501 24.4434H42.6432C43.2428 24.4434 43.8178 24.2052 44.2418 23.7812C44.6658 23.3572 44.9039 22.7822 44.9039 22.1826C44.9039 21.583 44.6658 21.008 44.2418 20.584C43.8178 20.1601 43.2428 19.9219 42.6432 19.9219Z" fill="#A3C156"/>
<path d="M42.6432 101.561H29.8501C29.2505 101.561 28.6755 101.799 28.2515 102.223C27.8275 102.647 27.5894 103.222 27.5894 103.821C27.5894 104.421 27.8275 104.996 28.2515 105.42C28.6755 105.844 29.2505 106.082 29.8501 106.082H42.6432C43.2428 106.082 43.8178 105.844 44.2418 105.42C44.6658 104.996 44.9039 104.421 44.9039 103.821C44.9039 103.222 44.6658 102.647 44.2418 102.223C43.8178 101.799 43.2428 101.561 42.6432 101.561Z" fill="#A3C156"/>
<path d="M42.645 87.917H17.3779C16.7783 87.917 16.2033 88.1552 15.7793 88.5791C15.3554 89.0031 15.1172 89.5781 15.1172 90.1777C15.1172 90.7773 15.3554 91.3523 15.7793 91.7763C16.2033 92.2003 16.7783 92.4385 17.3779 92.4385H42.645C43.2446 92.4385 43.8196 92.2003 44.2436 91.7763C44.6676 91.3523 44.9057 90.7773 44.9057 90.1777C44.9057 89.5781 44.6676 89.0031 44.2436 88.5791C43.8196 88.1552 43.2446 87.917 42.645 87.917Z" fill="#A3C156"/>
<path d="M42.6442 74.3525H10.063C9.4634 74.3525 8.88837 74.5907 8.4644 75.0147C8.04043 75.4387 7.80225 76.0137 7.80225 76.6133C7.80225 77.2129 8.04043 77.7879 8.4644 78.2119C8.88837 78.6358 9.4634 78.874 10.063 78.874H42.6442C43.2438 78.874 43.8188 78.6358 44.2428 78.2119C44.6668 77.7879 44.9049 77.2129 44.9049 76.6133C44.9049 76.0137 44.6668 75.4387 44.2428 75.0147C43.8188 74.5907 43.2438 74.3525 42.6442 74.3525Z" fill="#A3C156"/>
<path d="M42.645 33.5391H17.3779C16.7783 33.5391 16.2033 33.7772 15.7793 34.2012C15.3554 34.6252 15.1172 35.2002 15.1172 35.7998C15.1172 36.3994 15.3554 36.9744 15.7793 37.3984C16.2033 37.8224 16.7783 38.0605 17.3779 38.0605H42.645C43.2446 38.0605 43.8196 37.8224 44.2436 37.3984C44.6676 36.9744 44.9057 36.3994 44.9057 35.7998C44.9057 35.2002 44.6676 34.6252 44.2436 34.2012C43.8196 33.7772 43.2446 33.5391 42.645 33.5391Z" fill="#A3C156"/>
<path d="M42.6442 47.1436H10.063C9.4634 47.1436 8.88837 47.3817 8.4644 47.8057C8.04043 48.2297 7.80225 48.8047 7.80225 49.4043C7.80225 50.0039 8.04043 50.5789 8.4644 51.0029C8.88837 51.4268 9.4634 51.665 10.063 51.665H42.6442C43.2438 51.665 43.8188 51.4268 44.2428 51.0029C44.6668 50.5789 44.9049 50.0039 44.9049 49.4043C44.9049 48.8047 44.6668 48.2297 44.2428 47.8057C43.8188 47.3817 43.2438 47.1436 42.6442 47.1436Z" fill="#A3C156"/>
<path d="M42.6453 60.748H6.26074C5.66115 60.748 5.08613 60.9862 4.66215 61.4102C4.23818 61.8342 4 62.4092 4 63.0088C4 63.6084 4.23818 64.1834 4.66215 64.6074C5.08613 65.0313 5.66115 65.2695 6.26074 65.2695H42.6453C43.2449 65.2695 43.8199 65.0313 44.2439 64.6074C44.6679 64.1834 44.9061 63.6084 44.9061 63.0088C44.9061 62.4092 44.6679 61.8342 44.2439 61.4102C43.8199 60.9862 43.2449 60.748 42.6453 60.748Z" fill="#A3C156"/>
</g>
<defs>
<filter id="filter0_d" x="0" y="0" width="119.361" height="120" filterUnits="userSpaceOnUse" color-interpolation-filters="sRGB">
<feFlood flood-opacity="0" result="BackgroundImageFix"/>
<feColorMatrix in="SourceAlpha" type="matrix" values="0 0 0 0 0 0 0 0 0 0 0 0 0 0 0 0 0 0 127 0"/>
<feOffset dy="4"/>
<feGaussianBlur stdDeviation="2"/>
<feColorMatrix type="matrix" values="0 0 0 0 0 0 0 0 0 0 0 0 0 0 0 0 0 0 0.25 0"/>
<feBlend mode="normal" in2="BackgroundImageFix" result="effect1_dropShadow"/>
<feBlend mode="normal" in="SourceGraphic" in2="effect1_dropShadow" result="shape"/>
</filter>
</defs>
</svg>
