<svg width="19" height="20" viewBox="0 0 19 20" xmlns="http://www.w3.org/2000/svg">
<path fill-rule="evenodd" clip-rule="evenodd" d="M14.1282 17.9584C12.9216 17.9584 11.9401 16.9768 11.9401 15.7702C11.9401 14.5637 12.9216 13.5821 14.1282 13.5821C15.3348 13.5821 16.3164 14.5637 16.3164 15.7702C16.3164 16.9768 15.3348 17.9584 14.1282 17.9584ZM2.04161 10.3038C2.04161 9.09715 3.02321 8.11556 4.22967 8.11556C5.4363 8.11556 6.41789 9.09715 6.41789 10.3038C6.41789 11.5102 5.4363 12.4918 4.22967 12.4918C3.02321 12.4918 2.04161 11.5102 2.04161 10.3038ZM14.1282 2.04161C15.3348 2.04161 16.3164 3.02321 16.3164 4.22967C16.3164 5.4363 15.3348 6.41789 14.1282 6.41789C12.9216 6.41789 11.9401 5.4363 11.9401 4.22967C11.9401 3.02321 12.9216 2.04161 14.1282 2.04161ZM14.1282 11.5405C12.7961 11.5405 11.6064 12.1602 10.8305 13.1258L8.17397 11.8284C8.35771 11.355 8.45951 10.8412 8.45951 10.3038C8.45951 9.75 8.35147 9.22135 8.15701 8.73608L11.0738 7.15109C11.8443 7.95631 12.9283 8.45935 14.1282 8.45935C16.4605 8.45935 18.358 6.56194 18.358 4.22967C18.358 1.89741 16.4605 0 14.1282 0C11.7959 0 9.89853 1.89741 9.89853 4.22967C9.89853 4.62804 9.95503 5.01344 10.0586 5.37916L6.95038 7.0685C6.21431 6.44846 5.2652 6.07394 4.22967 6.07394C1.89741 6.07394 0 7.97151 0 10.3038C0 12.6359 1.89741 14.5335 4.22967 14.5335C5.27769 14.5335 6.2372 14.1495 6.97679 13.5158L9.97375 14.9795C9.92494 15.2358 9.89853 15.5 9.89853 15.7702C9.89853 18.1024 11.7959 20 14.1282 20C16.4605 20 18.358 18.1024 18.358 15.7702C18.358 13.4381 16.4605 11.5405 14.1282 11.5405Z"/>
</svg>
