<svg width="41" height="50" viewBox="0 0 41 50" xmlns="http://www.w3.org/2000/svg">
<path d="M39.8979 33.9159L34.7994 28.8173C37.4275 25.8738 39.0569 21.9842 39.0569 17.7792C39.0569 8.63338 31.5931 1.16951 22.4472 1.16951C18.1897 1.16951 14.3526 2.79895 11.4091 5.42707L6.25798 0.275953C5.89005 -0.0919842 5.31186 -0.0919842 4.94392 0.275953C4.57599 0.64389 4.57599 1.22208 4.94392 1.59001L5.94261 2.5887C-2.152 11.3666 -1.99432 25.0854 6.5208 33.6531C10.5681 37.6478 15.8243 39.9606 21.4485 40.1708V48.1077H14.0898C13.5642 48.1077 13.1437 48.5283 13.1437 49.0539C13.1437 49.5795 13.5642 50 14.0898 50H30.6469C31.1726 50 31.5931 49.5795 31.5931 49.0539C31.5931 48.5283 31.1726 48.1077 30.6469 48.1077H23.2882V40.1708C28.6496 39.9606 33.643 37.8581 37.5326 34.2838L38.5313 35.2825C38.689 35.4402 38.9518 35.5453 39.1621 35.5453C39.4249 35.5453 39.6351 35.4402 39.7928 35.2825C40.2659 34.862 40.2659 34.2838 39.8979 33.9159ZM19.1883 15.8344L24.2869 20.933L20.2396 24.9803C19.2935 24.2444 18.3999 23.456 17.5063 22.615C16.6128 21.7214 15.8243 20.8279 15.141 19.8817L19.1883 15.8344ZM14.0372 18.41C11.304 14.3627 10.2527 10.3679 11.4617 8.10775L17.8743 14.5204L14.0372 18.41ZM25.6535 22.2996L32.0661 28.7122C30.8046 29.3955 28.9124 29.3955 26.6522 28.6597C25.0753 28.134 23.3933 27.2405 21.7639 26.1367L25.6535 22.2996ZM33.3802 27.3982L26.915 20.9855L30.8046 17.0959C31.9084 18.7254 32.7494 20.3548 33.3276 21.9842C34.0635 24.2444 34.0635 26.1367 33.3802 27.3982ZM25.6535 19.6715L20.555 14.5729L24.6023 10.5256C25.5484 11.2615 26.442 12.0499 27.3355 12.9435C28.2291 13.8371 29.0175 14.7306 29.7008 15.6767L25.6535 19.6715ZM19.1883 13.2589L12.7757 6.84625C13.4065 6.53088 14.0898 6.26807 14.9308 6.26807C17.191 6.26807 20.0819 7.42444 23.0254 9.36925L19.1883 13.2589ZM9.14892 11.3141C9.41173 13.8371 10.6732 16.7806 12.7232 19.724L8.88611 23.5611C8.09767 21.774 7.67717 19.8292 7.67717 17.7267C7.67717 15.4665 8.20279 13.2589 9.14892 11.3141ZM13.827 21.2484C14.5628 22.1419 15.3513 23.088 16.2448 23.9816C17.1384 24.8752 18.032 25.6636 18.9781 26.3995L14.9308 30.4468C12.8283 29.1853 11.0937 27.4507 9.83223 25.3482L13.827 21.2484ZM20.4498 27.4507C22.2895 28.7648 24.2343 29.7635 26.074 30.3942C27.0727 30.7096 28.0188 30.9198 28.9124 30.9724C26.9676 31.9185 24.76 32.4967 22.4472 32.4967C20.3973 32.4967 18.3999 32.0762 16.6128 31.2878L20.4498 27.4507ZM35.6404 24.2444C35.5353 23.3509 35.3776 22.4047 35.0622 21.406C34.4314 19.5664 33.4328 17.6741 32.1187 15.7819L35.9558 11.9448C36.7442 13.7319 37.1647 15.6767 37.1647 17.7792C37.1647 20.092 36.6391 22.2996 35.6404 24.2444ZM35.0622 10.2102L31.0149 14.2576C30.279 13.3114 29.4906 12.4179 28.597 11.5243C27.7035 10.6307 26.8099 9.84231 25.8638 9.10644L29.9111 5.05913C32.0661 6.37319 33.8533 8.10775 35.0622 10.2102ZM28.2291 4.21813L24.392 8.05519C21.4485 6.00526 18.505 4.74376 15.982 4.48095C17.9268 3.53482 20.1345 2.95664 22.4472 2.95664C24.4971 3.0092 26.442 3.4297 28.2291 4.21813ZM22.4472 38.3837C16.9282 38.3837 11.7245 36.2286 7.83486 32.339C0.0556189 24.5072 -0.154631 11.9448 7.25667 3.8502L10.095 6.68857C7.46692 9.63206 5.83748 13.5217 5.83748 17.7267C5.83748 26.8725 13.3013 34.3364 22.4472 34.3364C26.7048 34.3364 30.5418 32.707 33.4853 30.0788L36.3237 32.9172C32.4866 36.4389 27.5983 38.3837 22.4472 38.3837Z"/>
</svg>
