<svg width="50" height="50" viewBox="0 0 50 50" xmlns="http://www.w3.org/2000/svg">
<path d="M24.8843 49.7344C11.1812 49.7344 0.0327148 38.586 0.0327148 24.8828C0.0327148 11.1797 11.1812 0.03125 24.8843 0.03125C38.5874 0.03125 49.7359 11.1797 49.7359 24.8828C49.7359 38.586 38.5874 49.7344 24.8843 49.7344ZM24.8843 2.75345C12.6826 2.75345 2.75701 12.6811 2.75701 24.8828C2.75701 37.0846 12.6826 47.0122 24.8843 47.0122C37.086 47.0122 47.0116 37.0846 47.0116 24.8828C47.0116 12.6811 37.086 2.75345 24.8843 2.75345Z"/>
<path d="M22.2855 24.4537C22.0196 24.4537 21.7495 24.3762 21.5149 24.2129L12.1548 17.7571C11.5349 17.3299 11.38 16.4818 11.8072 15.8641C12.2322 15.2464 13.0803 15.0872 13.7001 15.5144L23.0603 21.9702C23.6801 22.3974 23.8351 23.2455 23.4079 23.8632C23.1441 24.2485 22.719 24.4537 22.2855 24.4537Z"/>
<path d="M28.4214 28.6879C28.1555 28.6879 27.8854 28.6104 27.6508 28.4471L26.7148 27.8C26.095 27.3728 25.94 26.5248 26.3672 25.9071C26.7923 25.2914 27.6404 25.1323 28.2602 25.5594L29.1962 26.2065C29.816 26.6337 29.971 27.4817 29.5438 28.0995C29.2821 28.4827 28.8549 28.6879 28.4214 28.6879Z"/>
<path d="M27.5587 24.5747C27.1043 24.5747 26.6604 24.3486 26.4007 23.934C26.005 23.2953 26.1976 22.4556 26.8363 22.0577L40.0222 13.8304C40.6546 13.4305 41.4964 13.6273 41.8984 14.2639C42.2942 14.9025 42.1015 15.7422 41.4629 16.1401L28.277 24.3674C28.055 24.5077 27.8058 24.5747 27.5587 24.5747Z"/>
<path d="M20.9704 28.6881C20.516 28.6881 20.0721 28.462 19.8124 28.0474C19.4167 27.4108 19.6093 26.569 20.2459 26.1711L21.4855 25.3963C22.1242 24.9964 22.9618 25.1911 23.3618 25.8298C23.7575 26.4664 23.5649 27.3082 22.9283 27.706L21.6887 28.4808C21.4646 28.6211 21.2154 28.6881 20.9704 28.6881Z"/>
<path d="M24.8816 4.8162C24.1299 4.8162 23.5205 4.20685 23.5205 3.4551V1.3611C23.5205 0.609354 24.1299 0 24.8816 0C25.6334 0 26.2427 0.609354 26.2427 1.3611V3.4551C26.2427 4.20685 25.6334 4.8162 24.8816 4.8162Z"/>
<path d="M24.8816 49.7664C24.1299 49.7664 23.5205 49.157 23.5205 48.4053V46.3113C23.5205 45.5595 24.1299 44.9502 24.8816 44.9502C25.6334 44.9502 26.2427 45.5595 26.2427 46.3113V48.4053C26.2427 49.157 25.6334 49.7664 24.8816 49.7664Z"/>
<path d="M3.45719 26.2437H1.3611C0.609354 26.2437 0 25.6343 0 24.8826C0 24.1308 0.609354 23.5215 1.3611 23.5215H3.45719C4.20894 23.5215 4.81829 24.1308 4.81829 24.8826C4.81829 25.6343 4.20894 26.2437 3.45719 26.2437Z"/>
<path d="M48.4045 26.2437H46.3084C45.5566 26.2437 44.9473 25.6343 44.9473 24.8826C44.9473 24.1308 45.5566 23.5215 46.3084 23.5215H48.4045C49.1562 23.5215 49.7656 24.1308 49.7656 24.8826C49.7656 25.6343 49.1583 26.2437 48.4045 26.2437Z"/>
<path d="M24.8821 29.3999C22.3924 29.3999 20.3633 27.3729 20.3633 24.8831C20.3633 22.3912 22.3924 20.3643 24.8821 20.3643C27.3719 20.3643 29.401 22.3912 29.401 24.8831C29.401 27.375 27.3719 29.3999 24.8821 29.3999ZM24.8821 23.0865C23.8917 23.0865 23.0876 23.8926 23.0876 24.8831C23.0876 25.8736 23.8938 26.6777 24.8821 26.6777C25.8705 26.6777 26.6767 25.8715 26.6767 24.8831C26.6767 23.8926 25.8726 23.0865 24.8821 23.0865Z"/>
</svg>
