<svg width="58" height="58" viewBox="0 0 58 58" fill="none" xmlns="http://www.w3.org/2000/svg">
<path d="M0 58L4.988 43.037C2.457 38.78 1 33.812 1 28.5C1 12.76 13.76 0 29.5 0C45.24 0 58 12.76 58 28.5C58 44.24 45.24 57 29.5 57C24.711 57 20.201 55.813 16.24 53.727L0 58Z" fill="#2CB742"/>
<path d="M47.6828 37.9852C46.3669 35.4982 41.5139 32.6542 41.5139 32.6542C40.4159 32.0282 39.0909 31.9582 38.4649 33.0742C38.4649 33.0742 36.8879 34.9652 36.4869 35.2372C34.6549 36.4782 32.9579 36.4302 31.2449 34.7172L27.2639 30.7362L23.2829 26.7552C21.5699 25.0422 21.5219 23.3452 22.7629 21.5132C23.0349 21.1122 24.9259 19.5352 24.9259 19.5352C26.0419 18.9082 25.9719 17.5842 25.3459 16.4862C25.3459 16.4862 22.5019 11.6332 20.0149 10.3172C18.9569 9.75721 17.6579 9.95321 16.8119 10.7992L15.0539 12.5572C9.47685 18.1342 12.2229 24.4302 17.7999 30.0072L22.8969 35.1042L27.9939 40.2012C33.5709 45.7782 39.8669 48.5242 45.4439 42.9472L47.2019 41.1892C48.0479 40.3412 48.2429 39.0422 47.6828 37.9852Z" fill="white"/>
</svg>
