<svg width="30" height="30" viewBox="0 0 30 30" fill="none" xmlns="http://www.w3.org/2000/svg">
<g >
<path fill-rule="evenodd" clip-rule="evenodd" d="M0 15C0 6.71573 6.71573 0 15 0C23.2843 0 30 6.71573 30 15C30 23.2843 23.2843 30 15 30C6.71573 30 0 23.2843 0 15ZM18.9015 12.0534C19.0025 12.0534 19.1025 12.0544 19.202 12.0599C18.676 9.19343 15.7155 6.99993 12.1425 6.99993C8.1975 6.99993 5 9.67443 5 12.9734C5 14.9079 6.099 16.6274 7.8035 17.7189L7.869 17.7604L7.179 19.9219L9.761 18.6069C9.761 18.6069 9.842 18.6299 9.8825 18.6419C10.592 18.8394 11.353 18.9464 12.1425 18.9464C12.3035 18.9464 12.4635 18.9399 12.6225 18.9319C12.476 18.4774 12.3955 17.9999 12.3955 17.5069C12.3955 14.4944 15.3095 12.0534 18.9015 12.0534ZM18.9557 22.5891C15.6227 22.5891 12.9202 20.3296 12.9202 17.5421C12.9202 14.7556 15.6227 12.4961 18.9557 12.4961C22.2872 12.4961 24.9887 14.7556 24.9887 17.5421C24.9887 19.1771 24.0597 20.6296 22.6202 21.5516L22.5647 21.5861L23.1477 23.4131L20.9672 22.3011C20.9672 22.3011 20.8987 22.3216 20.8642 22.3306C20.2652 22.4981 19.6222 22.5891 18.9557 22.5891Z" fill="black"/>
<path d="M14.628 9.94531C15.182 9.94531 15.6305 10.3793 15.6305 10.9158C15.6305 11.4518 15.182 11.8873 14.628 11.8873C14.0735 11.8873 13.6255 11.4518 13.6255 10.9158C13.6255 10.3793 14.0735 9.94531 14.628 9.94531Z" fill="black"/>
<path d="M20.2075 15.8039C20.2075 15.3519 20.5865 14.9844 21.0545 14.9844C21.523 14.9844 21.902 15.3519 21.902 15.8039C21.902 16.2579 21.523 16.6259 21.0545 16.6259C20.5865 16.6259 20.2075 16.2579 20.2075 15.8039Z" fill="black"/>
<path d="M16.0078 15.8039C16.0078 15.3519 16.3878 14.9844 16.8553 14.9844C17.3238 14.9844 17.7033 15.3519 17.7033 15.8039C17.7033 16.2579 17.3238 16.6259 16.8553 16.6259C16.3878 16.6259 16.0078 16.2579 16.0078 15.8039Z" fill="black"/>
<path d="M9.6573 11.8873C9.1033 11.8873 8.6543 11.4518 8.6543 10.9158C8.6543 10.3793 9.1033 9.94531 9.6573 9.94531C10.2113 9.94531 10.6613 10.3793 10.6613 10.9158C10.6613 11.4518 10.2113 11.8873 9.6573 11.8873Z" fill="black"/>
</g>
</svg>
