<svg width="18" height="18" viewBox="0 0 18 18" fill="none" xmlns="http://www.w3.org/2000/svg">
<circle cx="9" cy="9" r="9" fill="#86B946"/>
<path d="M10.4003 11.3818C10.4003 11.0081 10.2954 10.7119 10.0858 10.4932C9.88073 10.2699 9.52982 10.0648 9.03307 9.87793C8.53633 9.69108 8.10794 9.50651 7.74792 9.32422C7.38789 9.13737 7.078 8.92546 6.81823 8.68848C6.56302 8.44694 6.3625 8.16439 6.21667 7.84082C6.07539 7.51725 6.00475 7.13216 6.00475 6.68555C6.00475 5.91536 6.25085 5.28418 6.74304 4.79199C7.23522 4.2998 7.88919 4.0127 8.70495 3.93066V2.46777H9.7987V3.95117C10.6053 4.0651 11.2365 4.40234 11.6923 4.96289C12.148 5.51888 12.3758 6.24121 12.3758 7.12988H10.4003C10.4003 6.58301 10.2863 6.17513 10.0585 5.90625C9.83516 5.63281 9.53438 5.49609 9.15612 5.49609C8.78242 5.49609 8.49304 5.60319 8.28796 5.81738C8.08288 6.02702 7.98034 6.31868 7.98034 6.69238C7.98034 7.03874 8.0806 7.31673 8.28112 7.52637C8.48164 7.736 8.85306 7.9502 9.39538 8.16895C9.94225 8.3877 10.3911 8.59505 10.7421 8.79102C11.093 8.98242 11.3892 9.20117 11.6307 9.44727C11.8723 9.6888 12.0568 9.9668 12.1844 10.2812C12.312 10.5911 12.3758 10.9535 12.3758 11.3682C12.3758 12.1429 12.1343 12.7718 11.6512 13.2549C11.1682 13.738 10.5028 14.0228 9.65514 14.1094V15.4697H8.56823V14.1162C7.63399 14.016 6.90938 13.6855 6.3944 13.125C5.88399 12.5599 5.62878 11.8102 5.62878 10.876H7.60436C7.60436 11.4183 7.73197 11.8353 7.98718 12.127C8.24694 12.4141 8.61836 12.5576 9.10143 12.5576C9.50248 12.5576 9.81921 12.4528 10.0516 12.2432C10.2841 12.029 10.4003 11.7419 10.4003 11.3818Z" fill="white"/>
</svg>
