<svg width="30" height="30" viewBox="0 0 30 30" fill="none" xmlns="http://www.w3.org/2000/svg">
<g >
<path fill-rule="evenodd" clip-rule="evenodd" d="M0 15C0 23.2843 6.71573 30 15 30C23.2843 30 30 23.2843 30 15C30 6.71573 23.2843 0 15 0C6.71573 0 0 6.71573 0 15ZM24.4137 14.426C24.4117 19.3427 20.412 23.3434 15.4943 23.3454H15.4906C13.9978 23.3449 12.531 22.9703 11.2282 22.2597L6.49985 23.5001L7.76524 18.8781C6.98469 17.5254 6.57397 15.991 6.57463 14.419C6.57659 9.50113 10.5779 5.50007 15.4942 5.50007C17.8803 5.5011 20.1197 6.42999 21.8037 8.11596C23.4877 9.80184 24.4146 12.0428 24.4137 14.426Z" fill="black"/>
<path fill-rule="evenodd" clip-rule="evenodd" d="M8.64138 21.3813L11.4472 20.6452L11.718 20.8059C12.8562 21.4814 14.161 21.8388 15.4912 21.8393H15.4943C19.5804 21.8393 22.906 18.5135 22.9077 14.4257C22.9084 12.4448 22.1381 10.5822 20.7384 9.18093C19.3387 7.77962 17.4773 7.00752 15.4972 7.00684C11.4079 7.00684 8.08219 10.3323 8.08057 14.4197C8.07999 15.8205 8.47194 17.1848 9.21404 18.3651L9.39031 18.6456L8.64138 21.3813ZM19.683 16.3465C19.8384 16.4216 19.9434 16.4724 19.9882 16.5472C20.0439 16.6401 20.0439 17.0863 19.8583 17.607C19.6725 18.1276 18.7821 18.6027 18.3539 18.6667C17.9699 18.7241 17.484 18.748 16.9502 18.5784C16.6265 18.4757 16.2114 18.3385 15.6796 18.1089C13.5903 17.2067 12.1783 15.1817 11.9115 14.799C11.8928 14.7722 11.8797 14.7534 11.8724 14.7437L11.8706 14.7413C11.7527 14.5839 10.9624 13.5295 10.9624 12.4382C10.9624 11.4116 11.4667 10.8735 11.6988 10.6259C11.7147 10.6089 11.7293 10.5933 11.7424 10.579C11.9467 10.3559 12.1882 10.3001 12.3367 10.3001C12.4853 10.3001 12.634 10.3015 12.7639 10.308C12.7799 10.3088 12.7966 10.3087 12.8138 10.3086C12.9437 10.3078 13.1056 10.3069 13.2653 10.6905C13.3268 10.8382 13.4167 11.0571 13.5115 11.288C13.7033 11.7549 13.9152 12.2707 13.9524 12.3454C14.0082 12.4569 14.0453 12.587 13.971 12.7358C13.9599 12.7581 13.9496 12.7792 13.9397 12.7993C13.8839 12.9132 13.8429 12.997 13.7482 13.1076C13.7109 13.1511 13.6724 13.1979 13.634 13.2448C13.5573 13.3382 13.4806 13.4316 13.4139 13.4981C13.3023 13.6092 13.1861 13.7298 13.3161 13.9529C13.4461 14.176 13.8934 14.9058 14.556 15.4968C15.2682 16.132 15.8872 16.4005 16.2009 16.5366C16.2622 16.5632 16.3118 16.5847 16.3482 16.603C16.571 16.7146 16.701 16.6959 16.831 16.5472C16.9611 16.3985 17.3882 15.8964 17.5367 15.6733C17.6853 15.4503 17.8339 15.4874 18.0382 15.5618C18.2425 15.6362 19.3382 16.1753 19.5611 16.2869C19.6046 16.3086 19.6452 16.3283 19.683 16.3465Z" fill="black"/>
</g>
</svg>
