<svg width="30" height="30" viewBox="0 0 30 30" fill="none" xmlns="http://www.w3.org/2000/svg">
<g >
<path fill-rule="evenodd" clip-rule="evenodd" d="M15 0C23.2843 0 30 6.71573 30 15C30 23.2843 23.2843 30 15 30C6.71573 30 0 23.2843 0 15C0 6.71573 6.71573 0 15 0ZM18.996 13.099C18.9231 12.5063 18.7409 12.0409 18.4174 11.6287C17.9973 11.0979 17.4605 10.7801 16.6657 10.5915C16.1477 10.4658 15.9384 10.4803 15.7511 10.6514C15.5766 10.8117 15.5425 11.1331 15.6759 11.3412C15.7696 11.4923 15.8778 11.5464 16.1787 11.6055C16.5794 11.6792 16.8563 11.7749 17.1082 11.9189C17.6429 12.2276 17.8918 12.7107 17.9185 13.4928C17.931 13.86 17.9627 13.9729 18.0909 14.1031C18.3287 14.3412 18.7517 14.2949 18.9312 14.01C18.997 13.9026 19.0071 13.8559 19.014 13.6065C19.0186 13.4522 19.012 13.2224 18.996 13.099ZM19.0032 9.46257C20.2743 10.4905 20.9846 11.9514 21.0902 13.7673C21.1346 14.4825 21.0756 14.7154 20.8232 14.8481C20.5956 14.971 20.3376 14.9306 20.1606 14.7455C20.0434 14.6251 19.9983 14.4604 20 14.1689C20.0052 13.3628 19.8195 12.4626 19.5175 11.8379C19.168 11.1109 18.6278 10.4922 17.9482 10.0399C17.353 9.64263 16.5652 9.37428 15.8014 9.30745C15.3059 9.26411 15.129 9.18019 15.0339 8.94268C14.975 8.8006 14.9905 8.55497 15.0596 8.44495C15.1249 8.3435 15.2714 8.23132 15.3751 8.20166C15.4849 8.16964 16.1248 8.22563 16.4724 8.29471C17.4213 8.48785 18.287 8.885 19.0032 9.46257ZM23.4077 20.7602C23.3722 20.6564 23.2893 20.4963 23.2301 20.4044C22.8571 19.8411 20.8529 18.2726 19.8522 17.7597C19.2809 17.4662 18.8575 17.3684 18.5437 17.4602C18.2062 17.5551 18.0286 17.7122 17.4632 18.4149C17.2352 18.6966 17.0014 18.9605 16.9392 19.002C16.7852 19.1087 16.4833 19.1947 16.2701 19.1947C15.7757 19.1917 14.8787 18.8715 14.1889 18.4505C13.6531 18.1244 12.9663 17.5403 12.4393 16.9621C11.8176 16.2832 11.3943 15.6843 11.0598 15.0083C10.6276 14.1396 10.518 13.6088 10.6986 13.2204C10.743 13.1226 10.8022 13.0188 10.8288 12.9862C10.8555 12.9566 11.1338 12.7282 11.4416 12.4792C12.0456 11.9989 12.1433 11.8892 12.2558 11.5601C12.3979 11.142 12.3594 10.7151 12.1403 10.2852C11.9716 9.95901 11.5305 9.24744 11.2108 8.78788C10.7874 8.18306 9.73349 6.89036 9.52327 6.71538C9.14435 6.40706 8.65888 6.35366 8.12299 6.56125C7.5576 6.78066 6.49773 7.63454 6.04478 8.2305C5.63624 8.7701 5.47938 9.15255 5.45568 9.6566C5.43497 10.0717 5.47048 10.2436 5.68956 10.7744C7.40365 14.9371 9.96142 18.2608 13.4755 20.8996C15.3109 22.2782 17.2145 23.3278 19.1891 24.0454C20.3407 24.4634 20.841 24.4841 21.4301 24.1402C21.6788 23.992 22.2946 23.3604 22.638 22.9009C23.2064 22.1359 23.4166 21.7831 23.4758 21.5014C23.5172 21.3087 23.4847 20.9737 23.4077 20.7602ZM22.651 11.3753C23.0116 12.3146 23.1845 13.1572 23.2225 14.1843C23.2285 14.3872 23.2257 14.759 23.2126 15.0108C23.1852 15.4936 23.159 15.5895 23.02 15.7172C22.7966 15.9268 22.3612 15.8769 22.196 15.6243C22.1098 15.4888 22.0977 15.3895 22.1144 14.8254C22.1623 13.157 21.8249 11.8507 21.012 10.5444C20.0406 8.97728 18.5877 7.92157 16.6983 7.40508C16.2165 7.27362 15.8104 7.19349 15.1789 7.10848C14.7676 7.05463 14.6775 7.03187 14.5759 6.96938C14.2692 6.77294 14.2652 6.27552 14.5709 6.07609C14.7287 5.97082 14.845 5.96611 15.3593 6.03197C16.8673 6.22042 18.2129 6.66852 19.3186 7.34564C20.1111 7.83163 20.6108 8.26822 21.2542 9.03286C21.9347 9.84837 22.295 10.4513 22.651 11.3753Z" fill="black"/>
</g>
</svg>
