<svg width="44" height="44" viewBox="0 0 44 44" xmlns="http://www.w3.org/2000/svg">
<path d="M1.45826 28.3177L5.42579 27.3482L8.82718 40.8136L4.85965 41.7831C4.71124 41.816 4.57101 41.8776 4.44719 41.9645C4.32337 42.0514 4.21847 42.1617 4.13864 42.289C4.05881 42.4163 4.00566 42.558 3.98233 42.7058C3.959 42.8535 3.96595 43.0044 4.00277 43.1495C4.03959 43.2946 4.10554 43.431 4.19675 43.5507C4.28795 43.6704 4.40257 43.7709 4.53387 43.8464C4.66517 43.9219 4.8105 43.9709 4.96131 43.9904C5.11213 44.0099 5.26539 43.9996 5.41209 43.96L10.4982 42.7167C10.7888 42.6445 11.0389 42.4628 11.1943 42.2109C11.3498 41.9589 11.3982 41.657 11.3291 41.3702L11.0963 40.4411L11.1602 40.3917L13.023 38.5604H26.1903C27.2675 38.5634 28.3347 38.3563 29.33 37.951C30.3253 37.5458 31.229 36.9504 31.9886 36.1995L42.6448 25.7099C43.0509 25.3673 43.3807 24.9459 43.6134 24.4722C43.8461 23.9984 43.9768 23.4825 43.9972 22.9567C44.0176 22.431 43.9273 21.9068 43.7319 21.4169C43.5366 20.9271 43.2404 20.4822 42.862 20.1102C42.4836 19.7382 42.0311 19.447 41.5328 19.255C41.0346 19.063 40.5014 18.9742 39.9666 18.9942C39.4318 19.0143 38.907 19.1427 38.4251 19.3715C37.9432 19.6003 37.5145 19.9245 37.166 20.3238L31.2307 26.1588C30.945 25.4546 30.4504 24.8512 29.8112 24.4269C29.1721 24.0027 28.4179 23.7773 27.6467 23.7799H14.6575C13.3698 23.7766 12.0942 24.0245 10.9045 24.5091C9.71491 24.9937 8.63484 25.7055 7.72686 26.6031L7.61272 26.7154L7.36618 25.7414C7.29272 25.4557 7.10788 25.2098 6.8516 25.057C6.59533 24.9041 6.28817 24.8565 5.99649 24.9245L0.910382 26.1408C0.759948 26.1714 0.617338 26.2315 0.491096 26.3175C0.364853 26.4036 0.257576 26.5138 0.17569 26.6416C0.0938049 26.7693 0.0389964 26.912 0.0145484 27.0611C-0.00989952 27.2102 -0.0034839 27.3626 0.0334109 27.5092C0.0703057 27.6558 0.136921 27.7936 0.229265 27.9143C0.321609 28.035 0.437782 28.1361 0.570824 28.2116C0.703866 28.2871 0.85104 28.3354 1.00353 28.3536C1.15602 28.3719 1.31068 28.3597 1.45826 28.3177ZM9.33853 28.1696C10.0356 27.4813 10.8647 26.9356 11.7777 26.5643C12.6906 26.1929 13.6695 26.0033 14.6575 26.0062H27.6376C28.0583 26.0062 28.4619 26.1705 28.7594 26.463C29.057 26.7555 29.2241 27.1523 29.2241 27.5659C29.2241 27.9796 29.057 28.3763 28.7594 28.6688C28.4619 28.9613 28.0583 29.1257 27.6376 29.1257H19.4879C19.1852 29.1257 18.8949 29.2439 18.6808 29.4543C18.4668 29.6648 18.3465 29.9502 18.3465 30.2478C18.3465 30.5454 18.4668 30.8308 18.6808 31.0412C18.8949 31.2517 19.1852 31.3699 19.4879 31.3699H27.6376C28.1878 31.3703 28.7316 31.2547 29.2325 31.0309C29.7334 30.8072 30.1797 30.4804 30.5413 30.0727L38.7594 21.8858C39.0621 21.5882 39.4727 21.421 39.9008 21.421C40.3289 21.421 40.7395 21.5882 41.0422 21.8858C41.345 22.1834 41.515 22.587 41.515 23.0079C41.515 23.4288 41.345 23.8324 41.0422 24.13L30.3724 34.5971C29.8243 35.1384 29.1725 35.5674 28.4546 35.8594C27.7367 36.1514 26.9671 36.3006 26.1903 36.2982H12.5345C12.3845 36.298 12.2359 36.3268 12.0972 36.383C11.9586 36.4392 11.8325 36.5218 11.7264 36.6259L10.4434 37.8871L8.25648 29.2379L9.33853 28.1696ZM4.10632 38.6008C4.05171 38.3849 4.06363 38.1579 4.14057 37.9486C4.21751 37.7393 4.356 37.5573 4.53843 37.4256C4.72087 37.2939 4.93901 37.2185 5.16514 37.209C5.39127 37.1994 5.61517 37.2562 5.8084 37.3721C6.00162 37.488 6.15544 37.6577 6.25031 37.8597C6.34518 38.0618 6.3768 38.2869 6.34118 38.5067C6.30555 38.7264 6.20428 38.9308 6.05023 39.0938C5.89617 39.2568 5.6963 39.3711 5.47601 39.4222C5.38637 39.4438 5.29435 39.4543 5.20207 39.4536C4.94933 39.4502 4.70484 39.3647 4.50666 39.2104C4.30847 39.0562 4.16773 38.8419 4.10632 38.6008ZM7.79991 16.0373C7.70036 15.9271 7.62386 15.7987 7.5748 15.6594C7.52574 15.5201 7.50507 15.3727 7.51397 15.2256C7.52287 15.0784 7.56118 14.9344 7.62669 14.8019C7.6922 14.6693 7.78365 14.5507 7.89579 14.4529L17.1184 6.37362C17.3008 6.22781 17.5245 6.14094 17.7591 6.12487C17.9936 6.1088 18.2275 6.16433 18.4287 6.28385L23.7385 9.21033L30.8381 2.24423H29.1031C28.8004 2.24423 28.5101 2.12601 28.296 1.91557C28.082 1.70514 27.9617 1.41972 27.9617 1.12212C27.9617 0.824513 28.082 0.539098 28.296 0.32866C28.5101 0.118223 28.8004 0 29.1031 0H33.5911C33.8939 0 34.1842 0.118223 34.3982 0.32866C34.6123 0.539098 34.7325 0.824513 34.7325 1.12212V5.53428C34.7325 5.83188 34.6123 6.1173 34.3982 6.32774C34.1842 6.53817 33.8939 6.6564 33.5911 6.6564C33.2884 6.6564 32.9981 6.53817 32.784 6.32774C32.57 6.1173 32.4497 5.83188 32.4497 5.53428V3.83315L24.7521 11.3962C24.5757 11.57 24.3462 11.682 24.0988 11.7153C23.8514 11.7485 23.5997 11.7011 23.3824 11.5802L18.0178 8.61786L9.40245 16.1585C9.29034 16.2564 9.15972 16.3316 9.01805 16.3798C8.87637 16.428 8.72642 16.4483 8.57675 16.4396C8.42709 16.4308 8.28064 16.3932 8.14578 16.3288C8.01092 16.2644 7.89029 16.1745 7.79078 16.0642L7.79991 16.0373ZM32.5 10.2696V20.3283C32.5 20.6259 32.3797 20.9113 32.1656 21.1217C31.9516 21.3322 31.6613 21.4504 31.3585 21.4504C31.0558 21.4504 30.7655 21.3322 30.5515 21.1217C30.3374 20.9113 30.2171 20.6259 30.2171 20.3283V10.2876C30.2171 9.98996 30.3374 9.70455 30.5515 9.49411C30.7655 9.28367 31.0558 9.16545 31.3585 9.16545C31.6613 9.16545 31.9516 9.28367 32.1656 9.49411C32.3797 9.70455 32.5 9.98996 32.5 10.2876V10.2696ZM24.9073 13.8245C25.21 13.8245 25.5004 13.9427 25.7144 14.1531C25.9285 14.3636 26.0487 14.649 26.0487 14.9466V20.3328C26.0487 20.6304 25.9285 20.9158 25.7144 21.1262C25.5004 21.3367 25.21 21.4549 24.9073 21.4549C24.6046 21.4549 24.3143 21.3367 24.1002 21.1262C23.8862 20.9158 23.7659 20.6304 23.7659 20.3328V14.9466C23.7659 14.649 23.8862 14.3636 24.1002 14.1531C24.3143 13.9427 24.6046 13.8245 24.9073 13.8245ZM18.4652 12.3523C18.7679 12.3523 19.0583 12.4705 19.2723 12.6809C19.4864 12.8914 19.6066 13.1768 19.6066 13.4744V20.3283C19.6066 20.4756 19.5771 20.6215 19.5197 20.7577C19.4624 20.8938 19.3783 21.0175 19.2723 21.1217C19.1663 21.2259 19.0405 21.3086 18.902 21.365C18.7635 21.4214 18.6151 21.4504 18.4652 21.4504C18.3153 21.4504 18.1669 21.4214 18.0284 21.365C17.8899 21.3086 17.7641 21.2259 17.6581 21.1217C17.5521 21.0175 17.4681 20.8938 17.4107 20.7577C17.3533 20.6215 17.3238 20.4756 17.3238 20.3283V13.4654C17.3262 13.1694 17.4475 12.8862 17.6613 12.6777C17.8751 12.4692 18.1641 12.3523 18.4652 12.3523ZM12.0231 17.4242C12.3258 17.4242 12.6162 17.5425 12.8302 17.7529C13.0443 17.9633 13.1645 18.2487 13.1645 18.5463V20.3417C13.1645 20.6393 13.0443 20.9248 12.8302 21.1352C12.6162 21.3456 12.3258 21.4638 12.0231 21.4638C11.7204 21.4638 11.4301 21.3456 11.216 21.1352C11.002 20.9248 10.8817 20.6393 10.8817 20.3417V18.5463C10.8817 18.2487 11.002 17.9633 11.216 17.7529C11.4301 17.5425 11.7204 17.4242 12.0231 17.4242Z"/>
</svg>
