<svg width="18" height="21" viewBox="0 0 18 21" xmlns="http://www.w3.org/2000/svg">
<path d="M0.646446 3.64645C0.451185 3.84171 0.451185 4.15829 0.646446 4.35355L3.82843 7.53553C4.02369 7.73079 4.34027 7.73079 4.53553 7.53553C4.7308 7.34027 4.7308 7.02369 4.53553 6.82843L1.70711 4L4.53553 1.17157C4.7308 0.97631 4.7308 0.659727 4.53553 0.464465C4.34027 0.269203 4.02369 0.269203 3.82843 0.464465L0.646446 3.64645ZM17 3.5L1 3.5L1 4.5L17 4.5L17 3.5Z"/>
<path d="M17.3536 16.1464C17.5488 16.3417 17.5488 16.6583 17.3536 16.8536L14.1716 20.0355C13.9763 20.2308 13.6597 20.2308 13.4645 20.0355C13.2692 19.8403 13.2692 19.5237 13.4645 19.3284L16.2929 16.5L13.4645 13.6716C13.2692 13.4763 13.2692 13.1597 13.4645 12.9645C13.6597 12.7692 13.9763 12.7692 14.1716 12.9645L17.3536 16.1464ZM1 16L17 16L17 17L1 17L1 16Z"/>
</svg>
