<svg width="30" height="30" viewBox="0 0 30 30" fill="none" xmlns="http://www.w3.org/2000/svg">
<g >
<path fill-rule="evenodd" clip-rule="evenodd" d="M0 15C0 23.2843 6.71573 30 15 30C23.2843 30 30 23.2843 30 15C30 6.71573 23.2843 0 15 0C6.71573 0 0 6.71573 0 15ZM22.7162 15.0829C22.7162 15.6375 22.656 16.1772 22.5403 16.6984C22.8347 17.2827 23.0003 17.9402 23.0003 18.6366C23.0003 21.0459 21.0191 22.9999 18.5751 22.9999C17.8178 22.9999 17.1066 22.8117 16.4829 22.4815C16.0295 22.5641 15.5629 22.6076 15.085 22.6076C10.8705 22.6076 7.45373 19.2394 7.45373 15.0829C7.45373 14.5654 7.50735 14.0591 7.60801 13.5713C7.22231 12.9221 7.00029 12.1691 7.00029 11.3642C7.00029 8.95298 8.98148 6.99993 11.4264 6.99993C12.291 6.99993 13.0981 7.24568 13.7802 7.66949C14.2054 7.59716 14.6409 7.55913 15.085 7.55913C19.3004 7.55913 22.7162 10.9283 22.7162 15.0829Z" fill="black"/>
<path d="M18.999 18.6799C18.6462 19.1732 18.125 19.5627 17.4477 19.8391C16.7788 20.1136 15.9773 20.2536 15.0639 20.2536C13.9679 20.2536 13.0488 20.0635 12.331 19.6879C11.8183 19.4153 11.3959 19.0462 11.0752 18.588C10.7506 18.1281 10.5869 17.6709 10.5869 17.2285C10.5869 16.954 10.6942 16.7147 10.9049 16.5191C11.1137 16.3243 11.3818 16.2269 11.7017 16.2269C11.9632 16.2269 12.1899 16.3039 12.3734 16.4569C12.5493 16.6044 12.6998 16.8223 12.8212 17.1015C12.9566 17.4075 13.1034 17.6653 13.2586 17.8665C13.4091 18.0632 13.6245 18.2273 13.8992 18.3562C14.1758 18.4842 14.5493 18.551 15.0074 18.551C15.6387 18.551 16.1561 18.4174 16.5446 18.1559C16.9256 17.9009 17.11 17.593 17.11 17.2165C17.11 16.9206 17.0131 16.6869 16.8155 16.5033C16.6067 16.3123 16.3329 16.1639 16.0008 16.06C15.6537 15.9543 15.1833 15.8384 14.601 15.7178C13.808 15.5509 13.1354 15.3534 12.601 15.128C12.0535 14.8989 11.6123 14.5809 11.2896 14.183C10.9623 13.7778 10.7958 13.2705 10.7958 12.6742C10.7958 12.1066 10.9698 11.5938 11.3141 11.1524C11.6546 10.7137 12.1532 10.3706 12.7958 10.1378C13.4289 9.90689 14.1815 9.79004 15.0347 9.79004C15.7158 9.79004 16.315 9.86794 16.8155 10.0219C17.3188 10.1758 17.7421 10.3836 18.0752 10.6404C18.411 10.9001 18.6612 11.1755 18.8174 11.463C18.9754 11.7533 19.0563 12.0417 19.0563 12.3208C19.0563 12.5898 18.951 12.8346 18.7431 13.047C18.5342 13.2621 18.2699 13.3706 17.9594 13.3706C17.6772 13.3706 17.4552 13.302 17.3028 13.1685C17.1598 13.0433 17.0112 12.8485 16.8466 12.5703C16.6565 12.2142 16.426 11.9332 16.1617 11.7347C15.9049 11.5419 15.4768 11.4454 14.887 11.4454C14.3414 11.4454 13.8955 11.553 13.5653 11.7672C13.2473 11.9722 13.0921 12.2086 13.0921 12.4887C13.0921 12.6593 13.1419 12.8031 13.2454 12.9255C13.3527 13.0572 13.506 13.1703 13.6998 13.2668C13.9002 13.366 14.1071 13.4458 14.3141 13.5014C14.5258 13.5598 14.8814 13.6461 15.3696 13.7573C15.9877 13.8872 16.5549 14.0346 17.0563 14.1932C17.5653 14.3527 18.0037 14.5493 18.363 14.7802C18.728 15.0149 19.0168 15.3153 19.2228 15.6752C19.4289 16.0378 19.5333 16.4829 19.5333 17.0013C19.5333 17.6208 19.3527 18.1856 18.999 18.6799Z" fill="black"/>
</g>
</svg>
