<svg width="42" height="51" viewBox="0 0 42 51" xmlns="http://www.w3.org/2000/svg">
<path d="M30.3743 38.5452C30.098 38.5452 29.833 38.6549 29.6377 38.8503C29.4423 39.0456 29.3326 39.3106 29.3326 39.5869V44.7952C29.3326 45.624 29.0034 46.4188 28.4173 47.0049C27.8313 47.5909 27.0364 47.9202 26.2076 47.9202H5.37433C4.54553 47.9202 3.75068 47.5909 3.16463 47.0049C2.57858 46.4188 2.24934 45.624 2.24934 44.7952V8.33695H26.2076C26.4839 8.33695 26.7488 8.2272 26.9442 8.03185C27.1395 7.8365 27.2493 7.57155 27.2493 7.29529C27.2493 7.01902 27.1395 6.75407 26.9442 6.55872C26.7488 6.36337 26.4839 6.25362 26.2076 6.25362H2.24934V5.21196C2.24934 4.38316 2.57858 3.58831 3.16463 3.00226C3.75068 2.41621 4.54553 2.08697 5.37433 2.08697H26.2076C26.6239 2.06441 27.0403 2.1298 27.4297 2.27887C27.819 2.42793 28.1726 2.65734 28.4674 2.95214C28.7622 3.24695 28.9916 3.60054 29.1407 3.9899C29.2898 4.37926 29.3552 4.79565 29.3326 5.21196V11.4619C29.3326 11.7382 29.4423 12.0032 29.6377 12.1985C29.833 12.3939 30.098 12.5036 30.3743 12.5036C30.6505 12.5036 30.9155 12.3939 31.1108 12.1985C31.3062 12.0032 31.4159 11.7382 31.4159 11.4619V5.21196C31.4423 4.52093 31.3255 3.83191 31.0731 3.18809C30.8207 2.54428 30.438 1.95955 29.949 1.47056C29.46 0.981577 28.8753 0.598875 28.2315 0.346449C27.5877 0.0940219 26.8986 -0.0226863 26.2076 0.00363981H5.37433C3.993 0.00363981 2.66825 0.552372 1.6915 1.52912C0.714748 2.50587 0.166016 3.83063 0.166016 5.21196V44.7952C0.166016 45.4791 0.300733 46.1564 0.562475 46.7883C0.824218 47.4202 1.20786 47.9944 1.6915 48.478C2.17513 48.9617 2.74929 49.3453 3.3812 49.607C4.0131 49.8688 4.69037 50.0035 5.37433 50.0035H26.2076C26.8916 50.0035 27.5688 49.8688 28.2007 49.607C28.8326 49.3453 29.4068 48.9617 29.8904 48.478C30.3741 47.9944 30.7577 47.4202 31.0195 46.7883C31.2812 46.1564 31.4159 45.4791 31.4159 44.7952V39.5869C31.4159 39.3106 31.3062 39.0456 31.1108 38.8503C30.9155 38.6549 30.6505 38.5452 30.3743 38.5452Z"/>
<path d="M11.6245 43.7536C11.6245 44.0298 11.7343 44.2948 11.9296 44.4901C12.125 44.6855 12.3899 44.7952 12.6662 44.7952H18.9162C19.1924 44.7952 19.4574 44.6855 19.6527 44.4901C19.8481 44.2948 19.9578 44.0298 19.9578 43.7536C19.9578 43.4773 19.8481 43.2124 19.6527 43.017C19.4574 42.8217 19.1924 42.7119 18.9162 42.7119H12.6662C12.3899 42.7119 12.125 42.8217 11.9296 43.017C11.7343 43.2124 11.6245 43.4773 11.6245 43.7536Z"/>
<path d="M30.3743 13.545C27.5075 13.5332 24.7404 14.5963 22.6192 16.5248C20.4979 18.4532 19.1766 21.1067 18.916 23.9617H10.5827C10.3064 23.9617 10.0415 24.0714 9.84611 24.2668C9.65076 24.4621 9.54102 24.7271 9.54102 25.0033C9.54102 25.2796 9.65076 25.5445 9.84611 25.7399C10.0415 25.9352 10.3064 26.045 10.5827 26.045H19.9577C20.2339 26.045 20.4989 25.9352 20.6942 25.7399C20.8896 25.5445 20.9993 25.2796 20.9993 25.0033C20.9993 23.1491 21.5491 21.3366 22.5793 19.7949C23.6094 18.2532 25.0736 17.0515 26.7866 16.342C28.4997 15.6324 30.3847 15.4467 32.2033 15.8085C34.0218 16.1702 35.6923 17.0631 37.0034 18.3742C38.3145 19.6853 39.2074 21.3558 39.5691 23.1744C39.9309 24.9929 39.7452 26.8779 39.0356 28.591C38.3261 30.304 37.1245 31.7682 35.5827 32.7983C34.041 33.8285 32.2285 34.3783 30.3743 34.3783C30.098 34.3783 29.8331 34.488 29.6377 34.6834C29.4424 34.8787 29.3326 35.1437 29.3326 35.42C29.3326 35.6962 29.4424 35.9612 29.6377 36.1565C29.8331 36.3519 30.098 36.4616 30.3743 36.4616C33.4132 36.4616 36.3277 35.2544 38.4765 33.1056C40.6254 30.9567 41.8326 28.0423 41.8326 25.0033C41.8326 21.9644 40.6254 19.0499 38.4765 16.9011C36.3277 14.7522 33.4132 13.545 30.3743 13.545Z"/>
<path d="M31.4158 28.1286H29.3325C29.0562 28.1286 28.7913 28.0188 28.5959 27.8235C28.4006 27.6281 28.2908 27.3632 28.2908 27.0869C28.2908 26.8106 28.1811 26.5457 27.9858 26.3503C27.7904 26.155 27.5254 26.0452 27.2492 26.0452C26.9729 26.0452 26.708 26.155 26.5126 26.3503C26.3173 26.5457 26.2075 26.8106 26.2075 27.0869C26.2075 27.9157 26.5368 28.7105 27.1228 29.2966C27.7089 29.8826 28.5037 30.2119 29.3325 30.2119V31.2535C29.3325 31.5298 29.4423 31.7948 29.6376 31.9901C29.833 32.1855 30.0979 32.2952 30.3742 32.2952C30.6504 32.2952 30.9154 32.1855 31.1107 31.9901C31.3061 31.7948 31.4158 31.5298 31.4158 31.2535V30.2119C32.2446 30.2119 33.0395 29.8826 33.6255 29.2966C34.2116 28.7105 34.5408 27.9157 34.5408 27.0869C34.5408 26.2581 34.2116 25.4632 33.6255 24.8772C33.0395 24.2911 32.2446 23.9619 31.4158 23.9619H29.3325C29.0562 23.9619 28.7913 23.8522 28.5959 23.6568C28.4006 23.4615 28.2908 23.1965 28.2908 22.9202C28.2908 22.644 28.4006 22.379 28.5959 22.1837C28.7913 21.9883 29.0562 21.8786 29.3325 21.8786H31.4158C31.6921 21.8786 31.9571 21.9883 32.1524 22.1837C32.3478 22.379 32.4575 22.644 32.4575 22.9202C32.4575 23.1965 32.5672 23.4615 32.7626 23.6568C32.9579 23.8522 33.2229 23.9619 33.4992 23.9619C33.7754 23.9619 34.0404 23.8522 34.2357 23.6568C34.4311 23.4615 34.5408 23.1965 34.5408 22.9202C34.5408 22.0914 34.2116 21.2966 33.6255 20.7105C33.0395 20.1245 32.2446 19.7952 31.4158 19.7952V18.7536C31.4158 18.4773 31.3061 18.2124 31.1107 18.017C30.9154 17.8217 30.6504 17.7119 30.3742 17.7119C30.0979 17.7119 29.833 17.8217 29.6376 18.017C29.4423 18.2124 29.3325 18.4773 29.3325 18.7536V19.7952C28.5037 19.7952 27.7089 20.1245 27.1228 20.7105C26.5368 21.2966 26.2075 22.0914 26.2075 22.9202C26.2075 23.749 26.5368 24.5439 27.1228 25.1299C27.7089 25.716 28.5037 26.0452 29.3325 26.0452H31.4158C31.6921 26.0452 31.9571 26.155 32.1524 26.3503C32.3478 26.5457 32.4575 26.8106 32.4575 27.0869C32.4575 27.3632 32.3478 27.6281 32.1524 27.8235C31.9571 28.0188 31.6921 28.1286 31.4158 28.1286Z"/>
<path d="M19.9577 32.2952C20.2339 32.2952 20.4989 32.1855 20.6942 31.9901C20.8896 31.7948 20.9993 31.5298 20.9993 31.2536C20.9993 30.9773 20.8896 30.7124 20.6942 30.517C20.4989 30.3217 20.2339 30.2119 19.9577 30.2119H13.7077C13.4314 30.2119 13.1665 30.3217 12.9711 30.517C12.7758 30.7124 12.666 30.9773 12.666 31.2536C12.666 31.5298 12.7758 31.7948 12.9711 31.9901C13.1665 32.1855 13.4314 32.2952 13.7077 32.2952H19.9577Z"/>
</svg>
