<svg width="30" height="30" viewBox="0 0 30 30" fill="none" xmlns="http://www.w3.org/2000/svg">
<g >
<path fill-rule="evenodd" clip-rule="evenodd" d="M0 15C0 23.2843 6.71573 30 15 30C23.2843 30 30 23.2843 30 15C30 6.71573 23.2843 0 15 0C6.71573 0 0 6.71573 0 15ZM9.28594 23.9777V20.7759C7.28069 19.2499 6.00015 16.9258 6.00015 14.323C6.00015 9.72628 9.99392 5.99996 14.9205 5.99996C19.8474 5.99996 23.8409 9.72628 23.8409 14.323C23.8409 18.9193 19.8474 22.646 14.9205 22.646C14.0014 22.646 13.1143 22.5162 12.2798 22.2756L9.28594 23.9777Z" fill="black"/>
<path d="M13.9679 12.043L9.15723 17.1365L13.5354 14.7344L15.8229 17.1365L20.6064 12.043L16.2769 14.403L13.9679 12.043Z" fill="black"/>
</g>
</svg>
