<svg width="190" height="190" viewBox="0 0 190 190" fill="none" xmlns="http://www.w3.org/2000/svg">
<path fill-rule="evenodd" clip-rule="evenodd" d="M56.3244 48.3241C52.4192 44.4189 52.4192 38.0872 56.3244 34.182L87.5775 2.92893C91.4827 -0.976312 97.8144 -0.976309 101.72 2.92893L132.973 34.182C136.878 38.0872 136.878 44.4189 132.973 48.3241L101.72 79.5772C101.687 79.6102 101.653 79.6429 101.62 79.6754V46.0362L105.51 49.9265C107.62 52.0359 111.04 52.0359 113.149 49.9265C115.259 47.8171 115.259 44.3971 113.149 42.2877L98.8999 28.0384C98.5256 27.6641 98.1101 27.3563 97.6679 27.1148C95.5565 25.5883 92.5901 25.7758 90.6887 27.6772L76.4395 41.9265C74.3301 44.0359 74.3301 47.4559 76.4395 49.5653C78.5489 51.6747 81.9688 51.6747 84.0782 49.5653L85.6201 48.0235V77.6198L56.3244 48.3241ZM56.3244 155.324C52.4192 151.419 52.4192 145.087 56.3244 141.182L85.9688 111.538V143.679L82.0785 139.789C79.9691 137.68 76.5491 137.68 74.4397 139.789C72.3303 141.899 72.3303 145.319 74.4397 147.428L88.6889 161.677C89.0632 162.052 89.4788 162.359 89.921 162.601C92.0324 164.127 94.9987 163.94 96.9001 162.038L111.149 147.789C113.259 145.68 113.259 142.26 111.149 140.15C109.04 138.041 105.62 138.041 103.511 140.15L101.969 141.692L101.969 110.178L132.973 141.182C136.878 145.087 136.878 151.419 132.973 155.324L101.72 186.577C97.8144 190.482 91.4827 190.482 87.5775 186.577L56.3244 155.324ZM2.92893 88.182C-0.976309 92.0872 -0.976312 98.4189 2.92893 102.324L34.182 133.577C38.0872 137.482 44.4189 137.482 48.3241 133.577L78.8691 103.032H47.7859L49.3277 104.574C51.4371 106.683 51.4371 110.103 49.3277 112.213C47.2183 114.322 43.7983 114.322 41.6889 112.213L27.4397 97.9635C25.5383 96.0621 25.3508 93.0958 26.8772 90.9844C27.1187 90.5422 27.4266 90.1266 27.8009 89.7523L42.0502 75.5031C44.1595 73.3937 47.5795 73.3937 49.6889 75.5031C51.7983 77.6124 51.7983 81.0324 49.6889 83.1418L45.7986 87.0322L78.4274 87.0322L48.3241 56.9289C44.4189 53.0237 38.0872 53.0237 34.182 56.9289L2.92893 88.182ZM110.288 102.683L141.182 133.577C145.087 137.482 151.419 137.482 155.324 133.577L186.577 102.324C190.482 98.4189 190.482 92.0872 186.577 88.182L155.324 56.9289C151.419 53.0237 145.087 53.0237 141.182 56.9289L111.427 86.6834H141.455L139.913 85.1416C137.803 83.0322 137.803 79.6122 139.913 77.5028C142.022 75.3934 145.442 75.3934 147.552 77.5028L161.801 91.7521C163.702 93.6535 163.89 96.6198 162.363 98.7312C162.122 99.1734 161.814 99.589 161.44 99.9633L147.19 114.213C145.081 116.322 141.661 116.322 139.552 114.213C137.442 112.103 137.442 108.683 139.552 106.574L143.442 102.683H110.288Z" fill="#A3C156"/>
<circle cx="93.3574" cy="95.3574" r="13.5" fill="#A3C156"/>
</svg>
