<svg width="32" height="32" viewBox="0 0 32 32" fill="none" xmlns="http://www.w3.org/2000/svg">
<circle cx="16" cy="16" r="16" fill="#F2994A"/>
<path d="M18 5.5C18 4.39543 17.1046 3.5 16 3.5C14.8954 3.5 14 4.39543 14 5.5H18ZM14 15.5C14 16.6046 14.8954 17.5 16 17.5C17.1046 17.5 18 16.6046 18 15.5H14ZM14 5.5V15.5H18V5.5H14Z" fill="white"/>
<path d="M18 23C18 21.8954 17.1046 21 16 21C14.8954 21 14 21.8954 14 23H18ZM14 25C14 26.1046 14.8954 27 16 27C17.1046 27 18 26.1046 18 25H14ZM14 23V25H18V23H14Z" fill="white"/>
</svg>
