<svg width="46" height="46" viewBox="0 0 46 46" fill="none" xmlns="http://www.w3.org/2000/svg">
<path fill-rule="evenodd" clip-rule="evenodd" d="M17.4035 15.2923C14.0966 11.9854 14.0966 6.62393 17.4035 3.31706C20.7104 0.0101978 26.0718 0.0101978 29.3787 3.31706C32.6856 6.62393 32.6856 11.9854 29.3787 15.2923C28.1961 16.4749 26.7507 17.2346 25.2304 17.5713V10.5652L26.2581 11.5929C26.8146 12.1494 27.7168 12.1494 28.2732 11.5929C28.8297 11.0365 28.8297 10.1343 28.2732 9.57782L24.5143 5.81888C24.414 5.7186 24.3025 5.6364 24.1838 5.57227C23.6271 5.17296 22.8474 5.22345 22.3471 5.72375L18.5881 9.48269C18.0317 10.0392 18.0317 10.9413 18.5881 11.4978C19.1446 12.0543 20.0468 12.0543 20.6032 11.4978L21.0096 11.0914V17.4323C19.6894 17.0468 18.4446 16.3334 17.4035 15.2923ZM17.4035 43.5186C14.0966 40.2117 14.0966 34.8502 17.4035 31.5434C18.4679 30.4789 19.7453 29.7571 21.0984 29.3779V36.3259L20.0716 35.2991C19.5151 34.7426 18.6129 34.7426 18.0565 35.2991C17.5 35.8555 17.5 36.7577 18.0565 37.3142L21.8154 41.0731C21.9157 41.1734 22.0272 41.2556 22.1459 41.3197C22.7026 41.719 23.4824 41.6685 23.9827 41.1682L27.7416 37.4093C28.2981 36.8528 28.2981 35.9506 27.7416 35.3942C27.1852 34.8377 26.283 34.8377 25.7265 35.3942L25.3192 35.8015L25.3192 29.2845C26.8069 29.6308 28.2191 30.3838 29.3787 31.5434C32.6856 34.8502 32.6856 40.2117 29.3787 43.5186C26.0718 46.8254 20.7104 46.8254 17.4035 43.5186ZM3.31609 17.5619C0.00922123 20.8688 0.00922123 26.2303 3.31609 29.5371C6.62295 32.844 11.9844 32.844 15.2913 29.5371C16.4188 28.4097 17.1618 27.0433 17.5205 25.6011H11.0303L11.4361 26.0069C11.9926 26.5633 11.9926 27.4655 11.4361 28.022C10.8797 28.5784 9.97747 28.5784 9.42101 28.022L5.66206 24.263C5.16168 23.7626 5.11126 22.9827 5.51078 22.426C5.5748 22.3078 5.65674 22.1968 5.75659 22.097L9.51554 18.338C10.072 17.7816 10.9742 17.7816 11.5307 18.338C12.0871 18.8945 12.0871 19.7967 11.5307 20.3531L10.5035 21.3803H17.4903C17.1211 19.9814 16.3881 18.6587 15.2913 17.5619C11.9844 14.2551 6.62295 14.2551 3.31609 17.5619ZM29.3693 21.2886C29.7461 19.9237 30.4708 18.6347 31.5436 17.5619C34.8505 14.2551 40.2119 14.2551 43.5188 17.5619C46.8257 20.8688 46.8257 26.2303 43.5188 29.5371C40.2119 32.844 34.8505 32.844 31.5436 29.5371C30.3923 28.3858 29.6418 26.9854 29.2921 25.5094H36.2629L35.237 26.5353C34.6805 27.0917 34.6805 27.9939 35.237 28.5504C35.7935 29.1069 36.6957 29.1069 37.2521 28.5504L41.0111 24.7915C41.1109 24.6916 41.1929 24.5806 41.2569 24.4625C41.6564 23.9058 41.606 23.1258 41.1056 22.6254L37.3466 18.8665C36.7902 18.31 35.888 18.31 35.3315 18.8665C34.7751 19.4229 34.7751 20.3251 35.3315 20.8816L35.7385 21.2886L29.3693 21.2886Z" fill="#A3C156"/>
<circle cx="23.0486" cy="23.5779" r="3.56129" fill="#A3C156"/>
</svg>
