<svg xmlns="http://www.w3.org/2000/svg"><defs>
<filter id="filter0_d" x="0" y="0" width="119.361" height="120" filterUnits="userSpaceOnUse" color-interpolation-filters="sRGB">
<feFlood flood-opacity="0" result="BackgroundImageFix"/>
<feColorMatrix in="SourceAlpha" type="matrix" values="0 0 0 0 0 0 0 0 0 0 0 0 0 0 0 0 0 0 127 0"/>
<feOffset dy="4"/>
<feGaussianBlur stdDeviation="2"/>
<feColorMatrix type="matrix" values="0 0 0 0 0 0 0 0 0 0 0 0 0 0 0 0 0 0 0.25 0"/>
<feBlend mode="normal" in2="BackgroundImageFix" result="effect1_dropShadow"/>
<feBlend mode="normal" in="SourceGraphic" in2="effect1_dropShadow" result="shape"/>
</filter>
</defs><symbol id="icon-arrow-circle" viewBox="0 0 29 29">
<circle cx="14.5" cy="14.5" r="14" stroke="#A3C156" fill="none"/>
<path d="M19.3536 14.3536C19.5488 14.1583 19.5488 13.8417 19.3536 13.6464L16.1716 10.4645C15.9763 10.2692 15.6597 10.2692 15.4645 10.4645C15.2692 10.6597 15.2692 10.9763 15.4645 11.1716L18.2929 14L15.4645 16.8284C15.2692 17.0237 15.2692 17.3403 15.4645 17.5355C15.6597 17.7308 15.9763 17.7308 16.1716 17.5355L19.3536 14.3536ZM10 14.5L19 14.5L19 13.5L10 13.5L10 14.5Z" fill="#A3C156"/>
</symbol><symbol id="icon-basket" viewBox="0 0 14 20">
<path d="M1 16.8918C1 18.0529 1.9 19.0029 3 19.0029H11C12.1 19.0029 13 18.0529 13 16.8918V4.22515H1V16.8918ZM14 1.05849H10.5L9.5 0.00292969H4.5L3.5 1.05849H0V3.1696H14V1.05849Z"/>
</symbol><symbol id="icon-doll" viewBox="0 0 18 18">
<circle cx="9" cy="9" r="9" fill="#86B946"/>
<path d="M10.4003 11.3818C10.4003 11.0081 10.2954 10.7119 10.0858 10.4932C9.88073 10.2699 9.52982 10.0648 9.03307 9.87793C8.53633 9.69108 8.10794 9.50651 7.74792 9.32422C7.38789 9.13737 7.078 8.92546 6.81823 8.68848C6.56302 8.44694 6.3625 8.16439 6.21667 7.84082C6.07539 7.51725 6.00475 7.13216 6.00475 6.68555C6.00475 5.91536 6.25085 5.28418 6.74304 4.79199C7.23522 4.2998 7.88919 4.0127 8.70495 3.93066V2.46777H9.7987V3.95117C10.6053 4.0651 11.2365 4.40234 11.6923 4.96289C12.148 5.51888 12.3758 6.24121 12.3758 7.12988H10.4003C10.4003 6.58301 10.2863 6.17513 10.0585 5.90625C9.83516 5.63281 9.53438 5.49609 9.15612 5.49609C8.78242 5.49609 8.49304 5.60319 8.28796 5.81738C8.08288 6.02702 7.98034 6.31868 7.98034 6.69238C7.98034 7.03874 8.0806 7.31673 8.28112 7.52637C8.48164 7.736 8.85306 7.9502 9.39538 8.16895C9.94225 8.3877 10.3911 8.59505 10.7421 8.79102C11.093 8.98242 11.3892 9.20117 11.6307 9.44727C11.8723 9.6888 12.0568 9.9668 12.1844 10.2812C12.312 10.5911 12.3758 10.9535 12.3758 11.3682C12.3758 12.1429 12.1343 12.7718 11.6512 13.2549C11.1682 13.738 10.5028 14.0228 9.65514 14.1094V15.4697H8.56823V14.1162C7.63399 14.016 6.90938 13.6855 6.3944 13.125C5.88399 12.5599 5.62878 11.8102 5.62878 10.876H7.60436C7.60436 11.4183 7.73197 11.8353 7.98718 12.127C8.24694 12.4141 8.61836 12.5576 9.10143 12.5576C9.50248 12.5576 9.81921 12.4528 10.0516 12.2432C10.2841 12.029 10.4003 11.7419 10.4003 11.3818Z" fill="white"/>
</symbol><symbol id="icon-exchange" viewBox="0 0 18 21">
<path d="M0.646446 3.64645C0.451185 3.84171 0.451185 4.15829 0.646446 4.35355L3.82843 7.53553C4.02369 7.73079 4.34027 7.73079 4.53553 7.53553C4.7308 7.34027 4.7308 7.02369 4.53553 6.82843L1.70711 4L4.53553 1.17157C4.7308 0.97631 4.7308 0.659727 4.53553 0.464465C4.34027 0.269203 4.02369 0.269203 3.82843 0.464465L0.646446 3.64645ZM17 3.5L1 3.5L1 4.5L17 4.5L17 3.5Z"/>
<path d="M17.3536 16.1464C17.5488 16.3417 17.5488 16.6583 17.3536 16.8536L14.1716 20.0355C13.9763 20.2308 13.6597 20.2308 13.4645 20.0355C13.2692 19.8403 13.2692 19.5237 13.4645 19.3284L16.2929 16.5L13.4645 13.6716C13.2692 13.4763 13.2692 13.1597 13.4645 12.9645C13.6597 12.7692 13.9763 12.7692 14.1716 12.9645L17.3536 16.1464ZM1 16L17 16L17 17L1 17L1 16Z"/>
</symbol><symbol id="icon-hand" viewBox="0 0 44 44">
<path d="M1.45826 28.3177L5.42579 27.3482L8.82718 40.8136L4.85965 41.7831C4.71124 41.816 4.57101 41.8776 4.44719 41.9645C4.32337 42.0514 4.21847 42.1617 4.13864 42.289C4.05881 42.4163 4.00566 42.558 3.98233 42.7058C3.959 42.8535 3.96595 43.0044 4.00277 43.1495C4.03959 43.2946 4.10554 43.431 4.19675 43.5507C4.28795 43.6704 4.40257 43.7709 4.53387 43.8464C4.66517 43.9219 4.8105 43.9709 4.96131 43.9904C5.11213 44.0099 5.26539 43.9996 5.41209 43.96L10.4982 42.7167C10.7888 42.6445 11.0389 42.4628 11.1943 42.2109C11.3498 41.9589 11.3982 41.657 11.3291 41.3702L11.0963 40.4411L11.1602 40.3917L13.023 38.5604H26.1903C27.2675 38.5634 28.3347 38.3563 29.33 37.951C30.3253 37.5458 31.229 36.9504 31.9886 36.1995L42.6448 25.7099C43.0509 25.3673 43.3807 24.9459 43.6134 24.4722C43.8461 23.9984 43.9768 23.4825 43.9972 22.9567C44.0176 22.431 43.9273 21.9068 43.7319 21.4169C43.5366 20.9271 43.2404 20.4822 42.862 20.1102C42.4836 19.7382 42.0311 19.447 41.5328 19.255C41.0346 19.063 40.5014 18.9742 39.9666 18.9942C39.4318 19.0143 38.907 19.1427 38.4251 19.3715C37.9432 19.6003 37.5145 19.9245 37.166 20.3238L31.2307 26.1588C30.945 25.4546 30.4504 24.8512 29.8112 24.4269C29.1721 24.0027 28.4179 23.7773 27.6467 23.7799H14.6575C13.3698 23.7766 12.0942 24.0245 10.9045 24.5091C9.71491 24.9937 8.63484 25.7055 7.72686 26.6031L7.61272 26.7154L7.36618 25.7414C7.29272 25.4557 7.10788 25.2098 6.8516 25.057C6.59533 24.9041 6.28817 24.8565 5.99649 24.9245L0.910382 26.1408C0.759948 26.1714 0.617338 26.2315 0.491096 26.3175C0.364853 26.4036 0.257576 26.5138 0.17569 26.6416C0.0938049 26.7693 0.0389964 26.912 0.0145484 27.0611C-0.00989952 27.2102 -0.0034839 27.3626 0.0334109 27.5092C0.0703057 27.6558 0.136921 27.7936 0.229265 27.9143C0.321609 28.035 0.437782 28.1361 0.570824 28.2116C0.703866 28.2871 0.85104 28.3354 1.00353 28.3536C1.15602 28.3719 1.31068 28.3597 1.45826 28.3177ZM9.33853 28.1696C10.0356 27.4813 10.8647 26.9356 11.7777 26.5643C12.6906 26.1929 13.6695 26.0033 14.6575 26.0062H27.6376C28.0583 26.0062 28.4619 26.1705 28.7594 26.463C29.057 26.7555 29.2241 27.1523 29.2241 27.5659C29.2241 27.9796 29.057 28.3763 28.7594 28.6688C28.4619 28.9613 28.0583 29.1257 27.6376 29.1257H19.4879C19.1852 29.1257 18.8949 29.2439 18.6808 29.4543C18.4668 29.6648 18.3465 29.9502 18.3465 30.2478C18.3465 30.5454 18.4668 30.8308 18.6808 31.0412C18.8949 31.2517 19.1852 31.3699 19.4879 31.3699H27.6376C28.1878 31.3703 28.7316 31.2547 29.2325 31.0309C29.7334 30.8072 30.1797 30.4804 30.5413 30.0727L38.7594 21.8858C39.0621 21.5882 39.4727 21.421 39.9008 21.421C40.3289 21.421 40.7395 21.5882 41.0422 21.8858C41.345 22.1834 41.515 22.587 41.515 23.0079C41.515 23.4288 41.345 23.8324 41.0422 24.13L30.3724 34.5971C29.8243 35.1384 29.1725 35.5674 28.4546 35.8594C27.7367 36.1514 26.9671 36.3006 26.1903 36.2982H12.5345C12.3845 36.298 12.2359 36.3268 12.0972 36.383C11.9586 36.4392 11.8325 36.5218 11.7264 36.6259L10.4434 37.8871L8.25648 29.2379L9.33853 28.1696ZM4.10632 38.6008C4.05171 38.3849 4.06363 38.1579 4.14057 37.9486C4.21751 37.7393 4.356 37.5573 4.53843 37.4256C4.72087 37.2939 4.93901 37.2185 5.16514 37.209C5.39127 37.1994 5.61517 37.2562 5.8084 37.3721C6.00162 37.488 6.15544 37.6577 6.25031 37.8597C6.34518 38.0618 6.3768 38.2869 6.34118 38.5067C6.30555 38.7264 6.20428 38.9308 6.05023 39.0938C5.89617 39.2568 5.6963 39.3711 5.47601 39.4222C5.38637 39.4438 5.29435 39.4543 5.20207 39.4536C4.94933 39.4502 4.70484 39.3647 4.50666 39.2104C4.30847 39.0562 4.16773 38.8419 4.10632 38.6008ZM7.79991 16.0373C7.70036 15.9271 7.62386 15.7987 7.5748 15.6594C7.52574 15.5201 7.50507 15.3727 7.51397 15.2256C7.52287 15.0784 7.56118 14.9344 7.62669 14.8019C7.6922 14.6693 7.78365 14.5507 7.89579 14.4529L17.1184 6.37362C17.3008 6.22781 17.5245 6.14094 17.7591 6.12487C17.9936 6.1088 18.2275 6.16433 18.4287 6.28385L23.7385 9.21033L30.8381 2.24423H29.1031C28.8004 2.24423 28.5101 2.12601 28.296 1.91557C28.082 1.70514 27.9617 1.41972 27.9617 1.12212C27.9617 0.824513 28.082 0.539098 28.296 0.32866C28.5101 0.118223 28.8004 0 29.1031 0H33.5911C33.8939 0 34.1842 0.118223 34.3982 0.32866C34.6123 0.539098 34.7325 0.824513 34.7325 1.12212V5.53428C34.7325 5.83188 34.6123 6.1173 34.3982 6.32774C34.1842 6.53817 33.8939 6.6564 33.5911 6.6564C33.2884 6.6564 32.9981 6.53817 32.784 6.32774C32.57 6.1173 32.4497 5.83188 32.4497 5.53428V3.83315L24.7521 11.3962C24.5757 11.57 24.3462 11.682 24.0988 11.7153C23.8514 11.7485 23.5997 11.7011 23.3824 11.5802L18.0178 8.61786L9.40245 16.1585C9.29034 16.2564 9.15972 16.3316 9.01805 16.3798C8.87637 16.428 8.72642 16.4483 8.57675 16.4396C8.42709 16.4308 8.28064 16.3932 8.14578 16.3288C8.01092 16.2644 7.89029 16.1745 7.79078 16.0642L7.79991 16.0373ZM32.5 10.2696V20.3283C32.5 20.6259 32.3797 20.9113 32.1656 21.1217C31.9516 21.3322 31.6613 21.4504 31.3585 21.4504C31.0558 21.4504 30.7655 21.3322 30.5515 21.1217C30.3374 20.9113 30.2171 20.6259 30.2171 20.3283V10.2876C30.2171 9.98996 30.3374 9.70455 30.5515 9.49411C30.7655 9.28367 31.0558 9.16545 31.3585 9.16545C31.6613 9.16545 31.9516 9.28367 32.1656 9.49411C32.3797 9.70455 32.5 9.98996 32.5 10.2876V10.2696ZM24.9073 13.8245C25.21 13.8245 25.5004 13.9427 25.7144 14.1531C25.9285 14.3636 26.0487 14.649 26.0487 14.9466V20.3328C26.0487 20.6304 25.9285 20.9158 25.7144 21.1262C25.5004 21.3367 25.21 21.4549 24.9073 21.4549C24.6046 21.4549 24.3143 21.3367 24.1002 21.1262C23.8862 20.9158 23.7659 20.6304 23.7659 20.3328V14.9466C23.7659 14.649 23.8862 14.3636 24.1002 14.1531C24.3143 13.9427 24.6046 13.8245 24.9073 13.8245ZM18.4652 12.3523C18.7679 12.3523 19.0583 12.4705 19.2723 12.6809C19.4864 12.8914 19.6066 13.1768 19.6066 13.4744V20.3283C19.6066 20.4756 19.5771 20.6215 19.5197 20.7577C19.4624 20.8938 19.3783 21.0175 19.2723 21.1217C19.1663 21.2259 19.0405 21.3086 18.902 21.365C18.7635 21.4214 18.6151 21.4504 18.4652 21.4504C18.3153 21.4504 18.1669 21.4214 18.0284 21.365C17.8899 21.3086 17.7641 21.2259 17.6581 21.1217C17.5521 21.0175 17.4681 20.8938 17.4107 20.7577C17.3533 20.6215 17.3238 20.4756 17.3238 20.3283V13.4654C17.3262 13.1694 17.4475 12.8862 17.6613 12.6777C17.8751 12.4692 18.1641 12.3523 18.4652 12.3523ZM12.0231 17.4242C12.3258 17.4242 12.6162 17.5425 12.8302 17.7529C13.0443 17.9633 13.1645 18.2487 13.1645 18.5463V20.3417C13.1645 20.6393 13.0443 20.9248 12.8302 21.1352C12.6162 21.3456 12.3258 21.4638 12.0231 21.4638C11.7204 21.4638 11.4301 21.3456 11.216 21.1352C11.002 20.9248 10.8817 20.6393 10.8817 20.3417V18.5463C10.8817 18.2487 11.002 17.9633 11.216 17.7529C11.4301 17.5425 11.7204 17.4242 12.0231 17.4242Z"/>
</symbol><symbol id="icon-lb" viewBox="0 0 30 30">
<g>
<path fill-rule="evenodd" clip-rule="evenodd" d="M15 0C6.71573 0 0 6.71573 0 15C0 23.2843 6.71573 30 15 30C23.2843 30 30 23.2843 30 15C30 6.71573 23.2843 0 15 0ZM15.2501 6.99993C20.3508 6.99993 24.5001 10.343 24.5001 14.4523C24.5001 16.0969 23.8581 17.5779 22.5175 19.0374H22.5178C20.5772 21.255 16.2374 23.9561 15.2501 24.3691C14.2906 24.7705 14.4014 24.1431 14.4453 23.8945C14.4466 23.8873 14.4478 23.8805 14.4489 23.874C14.4723 23.736 14.5808 23.088 14.5808 23.088C14.612 22.8535 14.6443 22.4898 14.551 22.2576C14.4473 22.002 14.0373 21.8692 13.7361 21.8048C9.29092 21.2214 6.00015 18.1362 6.00015 14.4523C6.00015 10.343 10.1501 6.99993 15.2501 6.99993Z" fill="black"/>
<path d="M13.3215 12.5H12.6787C12.5801 12.5 12.5 12.5827 12.5 12.6843V16.8157C12.5 16.9175 12.5801 17 12.6787 17H13.3215C13.4201 17 13.5 16.9175 13.5 16.8157V12.6843C13.5 12.5827 13.4201 12.5 13.3215 12.5Z" fill="black"/>
<path d="M17.8121 12.5H17.1354C17.0316 12.5 16.9475 12.5827 16.9475 12.6843V15.1388L15.0211 12.582C15.0166 12.5754 15.0117 12.5693 15.0065 12.5633L15.0052 12.5622C15.0015 12.558 14.9978 12.5543 14.9939 12.5507C14.9928 12.5496 14.9917 12.5487 14.9904 12.5476C14.9872 12.5447 14.9839 12.542 14.9804 12.5394C14.9789 12.538 14.9773 12.5369 14.9756 12.5356C14.9723 12.5334 14.9691 12.5311 14.9658 12.5291C14.9639 12.5278 14.9621 12.5267 14.9601 12.5258C14.9567 12.5238 14.9534 12.5218 14.9501 12.5202C14.948 12.5193 14.9462 12.5182 14.9441 12.5174C14.9406 12.5158 14.9371 12.5142 14.9334 12.5129C14.9312 12.5122 14.9294 12.5115 14.9273 12.5107C14.9236 12.5095 14.9199 12.5082 14.916 12.5073C14.914 12.5065 14.9118 12.5062 14.9096 12.5055C14.9059 12.5047 14.9023 12.5038 14.8988 12.5031C14.8962 12.5027 14.8935 12.5024 14.8909 12.5022C14.8876 12.5015 14.8842 12.5013 14.8809 12.5009C14.8778 12.5005 14.8746 12.5005 14.8713 12.5004C14.8689 12.5004 14.867 12.5 14.8646 12.5H14.1881C14.0843 12.5 14 12.5827 14 12.6843V16.8157C14 16.9175 14.0843 17 14.1881 17H14.8646C14.9686 17 15.0527 16.9175 15.0527 16.8157V14.3619L16.9815 16.922C16.9948 16.9406 17.0113 16.9557 17.0292 16.9676C17.0298 16.968 17.0305 16.9686 17.0311 16.9691C17.035 16.9715 17.0388 16.9738 17.0427 16.976C17.0446 16.9771 17.0462 16.9778 17.0481 16.9787C17.0509 16.9804 17.054 16.9818 17.057 16.9831C17.0601 16.9844 17.0629 16.9856 17.0662 16.9869C17.0681 16.9876 17.0699 16.9884 17.0718 16.9889C17.0762 16.9905 17.0803 16.9918 17.0845 16.9931C17.0854 16.9931 17.0864 16.9935 17.0873 16.9936C17.1026 16.9976 17.1187 17 17.1354 17H17.8121C17.916 17 18 16.9175 18 16.8157V12.6843C18 12.5827 17.916 12.5 17.8121 12.5Z" fill="black"/>
<path d="M11.8173 15.9655H10.0256V12.6847C10.0256 12.5827 9.94359 12.5 9.84267 12.5H9.1831C9.082 12.5 9 12.5827 9 12.6847V16.8152V16.8155C9 16.8651 9.01964 16.91 9.05118 16.9431C9.0519 16.944 9.05262 16.9449 9.0537 16.9458C9.0546 16.9467 9.05551 16.9475 9.05641 16.9484C9.08939 16.9804 9.13372 17 9.18292 17H11.8173C11.9184 17 12 16.9171 12 16.8152V16.1501C12 16.0482 11.9184 15.9655 11.8173 15.9655Z" fill="black"/>
<path d="M21.3173 13.5345C21.4184 13.5345 21.5 13.452 21.5 13.3499V12.6848C21.5 12.5829 21.4184 12.5 21.3173 12.5H18.6831H18.6827C18.6334 12.5 18.5888 12.52 18.5559 12.5522C18.5551 12.5529 18.5542 12.5534 18.5537 12.5542C18.5526 12.5553 18.5517 12.5563 18.5508 12.5574C18.5195 12.5905 18.5 12.6352 18.5 12.6847V12.6848V16.8153V16.8155C18.5 16.8651 18.5196 16.91 18.5512 16.9431C18.5519 16.944 18.5528 16.9451 18.5537 16.9458C18.5544 16.9467 18.5555 16.9477 18.5564 16.9484C18.5892 16.9802 18.6337 17 18.6827 17H21.3173C21.4184 17 21.5 16.9171 21.5 16.8153V16.1501C21.5 16.0483 21.4184 15.9655 21.3173 15.9655H19.5258V15.2672H21.3173C21.4184 15.2672 21.5 15.1845 21.5 15.0825V14.4175C21.5 14.3155 21.4184 14.2326 21.3173 14.2326H19.5258V13.5345H21.3173Z" fill="black"/>
</g>
</symbol><symbol id="icon-like" viewBox="0 0 22 20">
<path d="M0 20H4V8H0V20ZM22 9C22 7.9 21.1 7 20 7H13.69L14.64 2.43L14.67 2.11C14.67 1.7 14.5 1.32 14.23 1.05L13.17 0L6.59 6.59C6.22 6.95 6 7.45 6 8V18C6 19.1 6.9 20 8 20H17C17.83 20 18.54 19.5 18.84 18.78L21.86 11.73C21.95 11.5 22 11.26 22 11V9Z"/>
</symbol><symbol id="icon-mess" viewBox="0 0 30 30">
<g>
<path fill-rule="evenodd" clip-rule="evenodd" d="M0 15C0 23.2843 6.71573 30 15 30C23.2843 30 30 23.2843 30 15C30 6.71573 23.2843 0 15 0C6.71573 0 0 6.71573 0 15ZM9.28594 23.9777V20.7759C7.28069 19.2499 6.00015 16.9258 6.00015 14.323C6.00015 9.72628 9.99392 5.99996 14.9205 5.99996C19.8474 5.99996 23.8409 9.72628 23.8409 14.323C23.8409 18.9193 19.8474 22.646 14.9205 22.646C14.0014 22.646 13.1143 22.5162 12.2798 22.2756L9.28594 23.9777Z" fill="black"/>
<path d="M13.9679 12.043L9.15723 17.1365L13.5354 14.7344L15.8229 17.1365L20.6064 12.043L16.2769 14.403L13.9679 12.043Z" fill="black"/>
</g>
</symbol><symbol id="icon-mob-coin" viewBox="0 0 42 51">
<path d="M30.3743 38.5452C30.098 38.5452 29.833 38.6549 29.6377 38.8503C29.4423 39.0456 29.3326 39.3106 29.3326 39.5869V44.7952C29.3326 45.624 29.0034 46.4188 28.4173 47.0049C27.8313 47.5909 27.0364 47.9202 26.2076 47.9202H5.37433C4.54553 47.9202 3.75068 47.5909 3.16463 47.0049C2.57858 46.4188 2.24934 45.624 2.24934 44.7952V8.33695H26.2076C26.4839 8.33695 26.7488 8.2272 26.9442 8.03185C27.1395 7.8365 27.2493 7.57155 27.2493 7.29529C27.2493 7.01902 27.1395 6.75407 26.9442 6.55872C26.7488 6.36337 26.4839 6.25362 26.2076 6.25362H2.24934V5.21196C2.24934 4.38316 2.57858 3.58831 3.16463 3.00226C3.75068 2.41621 4.54553 2.08697 5.37433 2.08697H26.2076C26.6239 2.06441 27.0403 2.1298 27.4297 2.27887C27.819 2.42793 28.1726 2.65734 28.4674 2.95214C28.7622 3.24695 28.9916 3.60054 29.1407 3.9899C29.2898 4.37926 29.3552 4.79565 29.3326 5.21196V11.4619C29.3326 11.7382 29.4423 12.0032 29.6377 12.1985C29.833 12.3939 30.098 12.5036 30.3743 12.5036C30.6505 12.5036 30.9155 12.3939 31.1108 12.1985C31.3062 12.0032 31.4159 11.7382 31.4159 11.4619V5.21196C31.4423 4.52093 31.3255 3.83191 31.0731 3.18809C30.8207 2.54428 30.438 1.95955 29.949 1.47056C29.46 0.981577 28.8753 0.598875 28.2315 0.346449C27.5877 0.0940219 26.8986 -0.0226863 26.2076 0.00363981H5.37433C3.993 0.00363981 2.66825 0.552372 1.6915 1.52912C0.714748 2.50587 0.166016 3.83063 0.166016 5.21196V44.7952C0.166016 45.4791 0.300733 46.1564 0.562475 46.7883C0.824218 47.4202 1.20786 47.9944 1.6915 48.478C2.17513 48.9617 2.74929 49.3453 3.3812 49.607C4.0131 49.8688 4.69037 50.0035 5.37433 50.0035H26.2076C26.8916 50.0035 27.5688 49.8688 28.2007 49.607C28.8326 49.3453 29.4068 48.9617 29.8904 48.478C30.3741 47.9944 30.7577 47.4202 31.0195 46.7883C31.2812 46.1564 31.4159 45.4791 31.4159 44.7952V39.5869C31.4159 39.3106 31.3062 39.0456 31.1108 38.8503C30.9155 38.6549 30.6505 38.5452 30.3743 38.5452Z"/>
<path d="M11.6245 43.7536C11.6245 44.0298 11.7343 44.2948 11.9296 44.4901C12.125 44.6855 12.3899 44.7952 12.6662 44.7952H18.9162C19.1924 44.7952 19.4574 44.6855 19.6527 44.4901C19.8481 44.2948 19.9578 44.0298 19.9578 43.7536C19.9578 43.4773 19.8481 43.2124 19.6527 43.017C19.4574 42.8217 19.1924 42.7119 18.9162 42.7119H12.6662C12.3899 42.7119 12.125 42.8217 11.9296 43.017C11.7343 43.2124 11.6245 43.4773 11.6245 43.7536Z"/>
<path d="M30.3743 13.545C27.5075 13.5332 24.7404 14.5963 22.6192 16.5248C20.4979 18.4532 19.1766 21.1067 18.916 23.9617H10.5827C10.3064 23.9617 10.0415 24.0714 9.84611 24.2668C9.65076 24.4621 9.54102 24.7271 9.54102 25.0033C9.54102 25.2796 9.65076 25.5445 9.84611 25.7399C10.0415 25.9352 10.3064 26.045 10.5827 26.045H19.9577C20.2339 26.045 20.4989 25.9352 20.6942 25.7399C20.8896 25.5445 20.9993 25.2796 20.9993 25.0033C20.9993 23.1491 21.5491 21.3366 22.5793 19.7949C23.6094 18.2532 25.0736 17.0515 26.7866 16.342C28.4997 15.6324 30.3847 15.4467 32.2033 15.8085C34.0218 16.1702 35.6923 17.0631 37.0034 18.3742C38.3145 19.6853 39.2074 21.3558 39.5691 23.1744C39.9309 24.9929 39.7452 26.8779 39.0356 28.591C38.3261 30.304 37.1245 31.7682 35.5827 32.7983C34.041 33.8285 32.2285 34.3783 30.3743 34.3783C30.098 34.3783 29.8331 34.488 29.6377 34.6834C29.4424 34.8787 29.3326 35.1437 29.3326 35.42C29.3326 35.6962 29.4424 35.9612 29.6377 36.1565C29.8331 36.3519 30.098 36.4616 30.3743 36.4616C33.4132 36.4616 36.3277 35.2544 38.4765 33.1056C40.6254 30.9567 41.8326 28.0423 41.8326 25.0033C41.8326 21.9644 40.6254 19.0499 38.4765 16.9011C36.3277 14.7522 33.4132 13.545 30.3743 13.545Z"/>
<path d="M31.4158 28.1286H29.3325C29.0562 28.1286 28.7913 28.0188 28.5959 27.8235C28.4006 27.6281 28.2908 27.3632 28.2908 27.0869C28.2908 26.8106 28.1811 26.5457 27.9858 26.3503C27.7904 26.155 27.5254 26.0452 27.2492 26.0452C26.9729 26.0452 26.708 26.155 26.5126 26.3503C26.3173 26.5457 26.2075 26.8106 26.2075 27.0869C26.2075 27.9157 26.5368 28.7105 27.1228 29.2966C27.7089 29.8826 28.5037 30.2119 29.3325 30.2119V31.2535C29.3325 31.5298 29.4423 31.7948 29.6376 31.9901C29.833 32.1855 30.0979 32.2952 30.3742 32.2952C30.6504 32.2952 30.9154 32.1855 31.1107 31.9901C31.3061 31.7948 31.4158 31.5298 31.4158 31.2535V30.2119C32.2446 30.2119 33.0395 29.8826 33.6255 29.2966C34.2116 28.7105 34.5408 27.9157 34.5408 27.0869C34.5408 26.2581 34.2116 25.4632 33.6255 24.8772C33.0395 24.2911 32.2446 23.9619 31.4158 23.9619H29.3325C29.0562 23.9619 28.7913 23.8522 28.5959 23.6568C28.4006 23.4615 28.2908 23.1965 28.2908 22.9202C28.2908 22.644 28.4006 22.379 28.5959 22.1837C28.7913 21.9883 29.0562 21.8786 29.3325 21.8786H31.4158C31.6921 21.8786 31.9571 21.9883 32.1524 22.1837C32.3478 22.379 32.4575 22.644 32.4575 22.9202C32.4575 23.1965 32.5672 23.4615 32.7626 23.6568C32.9579 23.8522 33.2229 23.9619 33.4992 23.9619C33.7754 23.9619 34.0404 23.8522 34.2357 23.6568C34.4311 23.4615 34.5408 23.1965 34.5408 22.9202C34.5408 22.0914 34.2116 21.2966 33.6255 20.7105C33.0395 20.1245 32.2446 19.7952 31.4158 19.7952V18.7536C31.4158 18.4773 31.3061 18.2124 31.1107 18.017C30.9154 17.8217 30.6504 17.7119 30.3742 17.7119C30.0979 17.7119 29.833 17.8217 29.6376 18.017C29.4423 18.2124 29.3325 18.4773 29.3325 18.7536V19.7952C28.5037 19.7952 27.7089 20.1245 27.1228 20.7105C26.5368 21.2966 26.2075 22.0914 26.2075 22.9202C26.2075 23.749 26.5368 24.5439 27.1228 25.1299C27.7089 25.716 28.5037 26.0452 29.3325 26.0452H31.4158C31.6921 26.0452 31.9571 26.155 32.1524 26.3503C32.3478 26.5457 32.4575 26.8106 32.4575 27.0869C32.4575 27.3632 32.3478 27.6281 32.1524 27.8235C31.9571 28.0188 31.6921 28.1286 31.4158 28.1286Z"/>
<path d="M19.9577 32.2952C20.2339 32.2952 20.4989 32.1855 20.6942 31.9901C20.8896 31.7948 20.9993 31.5298 20.9993 31.2536C20.9993 30.9773 20.8896 30.7124 20.6942 30.517C20.4989 30.3217 20.2339 30.2119 19.9577 30.2119H13.7077C13.4314 30.2119 13.1665 30.3217 12.9711 30.517C12.7758 30.7124 12.666 30.9773 12.666 31.2536C12.666 31.5298 12.7758 31.7948 12.9711 31.9901C13.1665 32.1855 13.4314 32.2952 13.7077 32.2952H19.9577Z"/>
</symbol><symbol id="icon-mob-phone" viewBox="0 0 23 36">
<path d="M19.1667 0.018L3.83333 0C1.725 0 0 1.62 0 3.6V32.4C0 34.38 1.725 36 3.83333 36H19.1667C21.275 36 23 34.38 23 32.4V3.6C23 1.62 21.275 0.018 19.1667 0.018ZM19.1667 28.8H3.83333V7.2H19.1667V28.8Z" fill="#A3C156"/>
</symbol><symbol id="icon-pen" viewBox="0 0 23 24">
<path d="M17.0091 6.71073L13.4154 3.11698L3.83203 12.7003V16.2941H7.42578L17.0091 6.71073ZM19.8458 3.87406C20.2195 3.50031 20.2195 2.89656 19.8458 2.52281L17.6033 0.280313C17.2295 -0.0934375 16.6258 -0.0934375 16.252 0.280313L14.3737 2.15865L17.9674 5.7524L19.8458 3.87406Z"/>
<path d="M0 19.1699H23V23.0033H0V19.1699Z"/>
</symbol><symbol id="icon-phone" viewBox="0 0 30 30">
<path d="M28.3333 20.8333C26.25 20.8333 24.25 20.5 22.3833 19.8833C21.8 19.7 21.15 19.8333 20.6833 20.2833L17.0167 23.95C12.3 21.55 8.43333 17.7 6.03333 12.9833L9.7 9.3C10.1667 8.85 10.3 8.2 10.1167 7.61667C9.5 5.75 9.16667 3.75 9.16667 1.66667C9.16667 0.75 8.41667 0 7.5 0H1.66667C0.75 0 0 0.75 0 1.66667C0 17.3167 12.6833 30 28.3333 30C29.25 30 30 29.25 30 28.3333V22.5C30 21.5833 29.25 20.8333 28.3333 20.8333Z" fill="#A3C156"/>
</symbol><symbol id="icon-pin" viewBox="0 0 12 14">
<path d="M11.5 6C11.5 7.49117 10.8732 8.67151 9.81854 9.85044C9.05871 10.6998 8.11429 11.5108 7.05413 12.4213C6.70891 12.7178 6.35142 13.0248 5.98403 13.3471C4.3517 12.0427 3.01319 10.9728 2.05578 9.85805C1.05438 8.69207 0.5 7.5093 0.5 6C0.5 2.96243 2.96243 0.5 6 0.5C9.03757 0.5 11.5 2.96243 11.5 6Z" fill="none"/>
<circle cx="6" cy="6" r="3"/>
</symbol><symbol id="icon-search" viewBox="0 0 18 19">
<circle cx="8" cy="8" r="7" stroke="#11133F" fill="none" stroke-width="2"/>
<path d="M15.7128 17.6035C16.108 17.9893 16.7411 17.9817 17.1269 17.5866C17.5127 17.1914 17.5052 16.5583 17.11 16.1724L15.7128 17.6035ZM12.4602 14.4278L15.7128 17.6035L17.11 16.1724L13.8574 12.9968L12.4602 14.4278Z" fill="#11133F"/>
</symbol><symbol id="icon-share" viewBox="0 0 19 20">
<path fill-rule="evenodd" clip-rule="evenodd" d="M14.1282 17.9584C12.9216 17.9584 11.9401 16.9768 11.9401 15.7702C11.9401 14.5637 12.9216 13.5821 14.1282 13.5821C15.3348 13.5821 16.3164 14.5637 16.3164 15.7702C16.3164 16.9768 15.3348 17.9584 14.1282 17.9584ZM2.04161 10.3038C2.04161 9.09715 3.02321 8.11556 4.22967 8.11556C5.4363 8.11556 6.41789 9.09715 6.41789 10.3038C6.41789 11.5102 5.4363 12.4918 4.22967 12.4918C3.02321 12.4918 2.04161 11.5102 2.04161 10.3038ZM14.1282 2.04161C15.3348 2.04161 16.3164 3.02321 16.3164 4.22967C16.3164 5.4363 15.3348 6.41789 14.1282 6.41789C12.9216 6.41789 11.9401 5.4363 11.9401 4.22967C11.9401 3.02321 12.9216 2.04161 14.1282 2.04161ZM14.1282 11.5405C12.7961 11.5405 11.6064 12.1602 10.8305 13.1258L8.17397 11.8284C8.35771 11.355 8.45951 10.8412 8.45951 10.3038C8.45951 9.75 8.35147 9.22135 8.15701 8.73608L11.0738 7.15109C11.8443 7.95631 12.9283 8.45935 14.1282 8.45935C16.4605 8.45935 18.358 6.56194 18.358 4.22967C18.358 1.89741 16.4605 0 14.1282 0C11.7959 0 9.89853 1.89741 9.89853 4.22967C9.89853 4.62804 9.95503 5.01344 10.0586 5.37916L6.95038 7.0685C6.21431 6.44846 5.2652 6.07394 4.22967 6.07394C1.89741 6.07394 0 7.97151 0 10.3038C0 12.6359 1.89741 14.5335 4.22967 14.5335C5.27769 14.5335 6.2372 14.1495 6.97679 13.5158L9.97375 14.9795C9.92494 15.2358 9.89853 15.5 9.89853 15.7702C9.89853 18.1024 11.7959 20 14.1282 20C16.4605 20 18.358 18.1024 18.358 15.7702C18.358 13.4381 16.4605 11.5405 14.1282 11.5405Z"/>
</symbol><symbol id="icon-skype" viewBox="0 0 30 30">
<g>
<path fill-rule="evenodd" clip-rule="evenodd" d="M0 15C0 23.2843 6.71573 30 15 30C23.2843 30 30 23.2843 30 15C30 6.71573 23.2843 0 15 0C6.71573 0 0 6.71573 0 15ZM22.7162 15.0829C22.7162 15.6375 22.656 16.1772 22.5403 16.6984C22.8347 17.2827 23.0003 17.9402 23.0003 18.6366C23.0003 21.0459 21.0191 22.9999 18.5751 22.9999C17.8178 22.9999 17.1066 22.8117 16.4829 22.4815C16.0295 22.5641 15.5629 22.6076 15.085 22.6076C10.8705 22.6076 7.45373 19.2394 7.45373 15.0829C7.45373 14.5654 7.50735 14.0591 7.60801 13.5713C7.22231 12.9221 7.00029 12.1691 7.00029 11.3642C7.00029 8.95298 8.98148 6.99993 11.4264 6.99993C12.291 6.99993 13.0981 7.24568 13.7802 7.66949C14.2054 7.59716 14.6409 7.55913 15.085 7.55913C19.3004 7.55913 22.7162 10.9283 22.7162 15.0829Z" fill="black"/>
<path d="M18.999 18.6799C18.6462 19.1732 18.125 19.5627 17.4477 19.8391C16.7788 20.1136 15.9773 20.2536 15.0639 20.2536C13.9679 20.2536 13.0488 20.0635 12.331 19.6879C11.8183 19.4153 11.3959 19.0462 11.0752 18.588C10.7506 18.1281 10.5869 17.6709 10.5869 17.2285C10.5869 16.954 10.6942 16.7147 10.9049 16.5191C11.1137 16.3243 11.3818 16.2269 11.7017 16.2269C11.9632 16.2269 12.1899 16.3039 12.3734 16.4569C12.5493 16.6044 12.6998 16.8223 12.8212 17.1015C12.9566 17.4075 13.1034 17.6653 13.2586 17.8665C13.4091 18.0632 13.6245 18.2273 13.8992 18.3562C14.1758 18.4842 14.5493 18.551 15.0074 18.551C15.6387 18.551 16.1561 18.4174 16.5446 18.1559C16.9256 17.9009 17.11 17.593 17.11 17.2165C17.11 16.9206 17.0131 16.6869 16.8155 16.5033C16.6067 16.3123 16.3329 16.1639 16.0008 16.06C15.6537 15.9543 15.1833 15.8384 14.601 15.7178C13.808 15.5509 13.1354 15.3534 12.601 15.128C12.0535 14.8989 11.6123 14.5809 11.2896 14.183C10.9623 13.7778 10.7958 13.2705 10.7958 12.6742C10.7958 12.1066 10.9698 11.5938 11.3141 11.1524C11.6546 10.7137 12.1532 10.3706 12.7958 10.1378C13.4289 9.90689 14.1815 9.79004 15.0347 9.79004C15.7158 9.79004 16.315 9.86794 16.8155 10.0219C17.3188 10.1758 17.7421 10.3836 18.0752 10.6404C18.411 10.9001 18.6612 11.1755 18.8174 11.463C18.9754 11.7533 19.0563 12.0417 19.0563 12.3208C19.0563 12.5898 18.951 12.8346 18.7431 13.047C18.5342 13.2621 18.2699 13.3706 17.9594 13.3706C17.6772 13.3706 17.4552 13.302 17.3028 13.1685C17.1598 13.0433 17.0112 12.8485 16.8466 12.5703C16.6565 12.2142 16.426 11.9332 16.1617 11.7347C15.9049 11.5419 15.4768 11.4454 14.887 11.4454C14.3414 11.4454 13.8955 11.553 13.5653 11.7672C13.2473 11.9722 13.0921 12.2086 13.0921 12.4887C13.0921 12.6593 13.1419 12.8031 13.2454 12.9255C13.3527 13.0572 13.506 13.1703 13.6998 13.2668C13.9002 13.366 14.1071 13.4458 14.3141 13.5014C14.5258 13.5598 14.8814 13.6461 15.3696 13.7573C15.9877 13.8872 16.5549 14.0346 17.0563 14.1932C17.5653 14.3527 18.0037 14.5493 18.363 14.7802C18.728 15.0149 19.0168 15.3153 19.2228 15.6752C19.4289 16.0378 19.5333 16.4829 19.5333 17.0013C19.5333 17.6208 19.3527 18.1856 18.999 18.6799Z" fill="black"/>
</g>
</symbol><symbol id="icon-time" viewBox="0 0 120 120">
<g filter="url(#filter0_d)">
<path d="M71.4226 64.2852C71.4231 61.762 70.4735 59.3312 68.7629 57.4764L80.173 41.7842C80.5257 41.2992 80.6713 40.694 80.5777 40.1017C80.4842 39.5094 80.1592 38.9785 79.6743 38.6258C79.1893 38.2731 78.5841 38.1275 77.9918 38.221C77.3995 38.3146 76.8686 38.6395 76.5159 39.1245L64.9994 54.8832C62.9856 54.0776 60.7664 53.9395 58.6682 54.4891C56.57 55.0387 54.7035 56.2471 53.3432 57.9364C51.9829 59.6258 51.2005 61.7071 51.1112 63.8742C51.0218 66.0414 51.6301 68.18 52.8467 69.9757C54.0633 71.7713 55.8239 73.1293 57.8697 73.8498C59.9155 74.5703 62.1385 74.6154 64.2118 73.9784C66.2852 73.3415 68.0995 72.0561 69.3879 70.3112C70.6763 68.5664 71.3708 66.4542 71.3694 64.2852H71.4226ZM55.6905 64.2852C55.6905 63.1753 56.0196 62.0902 56.6363 61.1674C57.2529 60.2445 58.1294 59.5252 59.1549 59.1004C60.1803 58.6757 61.3087 58.5645 62.3973 58.7811C63.4859 58.9976 64.4859 59.5321 65.2707 60.3169C66.0556 61.1018 66.59 62.1017 66.8066 63.1904C67.0231 64.279 66.912 65.4073 66.4872 66.4328C66.0625 67.4582 65.3432 68.3347 64.4203 68.9514C63.4974 69.568 62.4124 69.8971 61.3025 69.8971C59.8152 69.8936 58.3898 69.3012 57.3381 68.2496C56.2864 67.1979 55.694 65.7725 55.6905 64.2852Z" fill="#A3C156"/>
<path d="M115.001 35.9195L109.057 26.7436C108.897 26.4927 108.689 26.2763 108.445 26.1073C108.201 25.9382 107.925 25.82 107.634 25.7595C107.048 25.6318 106.436 25.7418 105.932 26.0653L98.5775 30.7331C94.2371 25.766 88.9361 21.729 82.9938 18.8653C77.0515 16.0016 70.591 14.3704 64.0016 14.0701V12.3945H73.3105C73.9101 12.3945 74.4851 12.1563 74.9091 11.7324C75.333 11.3084 75.5712 10.7334 75.5712 10.1338V2.26109C75.5712 1.66151 75.333 1.08648 74.9091 0.662507C74.4851 0.238536 73.9101 0.00035207 73.3105 0.00035207H50.0116C49.7113 -0.00494684 49.4131 0.0496156 49.1342 0.160854C48.8553 0.272091 48.6013 0.437776 48.3871 0.648234C48.173 0.858693 48.0029 1.10971 47.8868 1.38663C47.7707 1.66355 47.7109 1.96082 47.7109 2.26109V10.1338C47.7109 10.4307 47.7694 10.7246 47.883 10.9989C47.9966 11.2732 48.1632 11.5224 48.3731 11.7324C48.583 11.9423 48.8322 12.1088 49.1065 12.2224C49.3808 12.336 49.6748 12.3945 49.9717 12.3945H59.4801V16.1048C59.4801 16.1048 59.4801 16.1048 59.4801 16.1979C59.4801 16.291 59.4801 16.2644 59.4801 16.291V24.7621C59.4801 25.3617 59.7183 25.9367 60.1422 26.3607C60.5662 26.7846 61.1412 27.0228 61.7408 27.0228C62.3404 27.0228 62.9154 26.7846 63.3394 26.3607C63.7634 25.9367 64.0016 25.3617 64.0016 24.7621V18.6182C71.9749 19.0238 79.6901 21.5787 86.3297 26.0121L82.2869 31.265C81.9221 31.7419 81.7608 32.3437 81.838 32.9392C81.9152 33.5346 82.2248 34.0753 82.6992 34.4434C83.0841 34.7314 83.5485 34.8939 84.029 34.9088C84.3766 34.9083 84.7194 34.8277 85.0308 34.6731C85.3422 34.5186 85.6137 34.2944 85.8243 34.0178L89.907 28.6984C96.0347 33.6981 100.721 40.2388 103.485 47.6487L96.8355 49.6435C96.3249 49.8056 95.8884 50.1437 95.6039 50.5975C95.3193 51.0514 95.2052 51.5916 95.2819 52.1218C95.3585 52.652 95.621 53.1377 96.0224 53.4924C96.4238 53.8472 96.9382 54.0478 97.4738 54.0586C97.6945 54.0613 97.9143 54.0299 98.1254 53.9655L104.894 52.0106C106.838 59.5722 106.751 67.5131 104.642 75.0303L98.0855 72.57C97.5332 72.3957 96.9351 72.4399 96.4145 72.6936C95.8938 72.9473 95.4904 73.3911 95.2874 73.9335C95.0844 74.4759 95.0974 75.0756 95.3236 75.6087C95.5497 76.1419 95.9719 76.5679 96.503 76.799L103.152 79.3124C100.221 86.6962 95.3735 93.1644 89.109 98.0499L85.1195 92.7305C84.7453 92.3113 84.2285 92.0464 83.6696 91.9876C83.1108 91.9287 82.5501 92.0801 82.0968 92.4122C81.6435 92.7443 81.3302 93.2333 81.2178 93.7838C81.1054 94.3344 81.2021 94.9071 81.489 95.3902L85.3722 100.71C78.954 104.764 71.5971 107.091 64.0148 107.465V100.882C64.0148 100.283 63.7767 99.7079 63.3527 99.2839C62.9287 98.8599 62.3537 98.6217 61.7541 98.6217C61.1545 98.6217 60.5795 98.8599 60.1555 99.2839C59.7316 99.7079 59.4934 100.283 59.4934 100.882V109.739C59.4934 110.036 59.5519 110.33 59.6655 110.604C59.7791 110.879 59.9456 111.128 60.1555 111.338C60.3655 111.548 60.6147 111.714 60.889 111.828C61.1633 111.942 61.4572 112 61.7541 112C69.8502 112.007 77.8216 110.006 84.9548 106.177C92.0881 102.348 98.1605 96.8093 102.629 90.0579C107.097 83.3064 109.821 75.5523 110.557 67.4898C111.294 59.4273 110.02 51.308 106.849 43.8587L114.323 39.0446C114.573 38.884 114.788 38.6758 114.958 38.4317C115.127 38.1877 115.246 37.9128 115.309 37.6226C115.372 37.3324 115.378 37.0326 115.325 36.7404C115.272 36.4481 115.162 36.1692 115.001 35.9195ZM52.2723 4.52183H71.1029V7.87304H52.2723V4.52183ZM104.894 39.7628C103.872 37.8687 102.721 36.047 101.45 34.3104L106.503 31.039L110.001 36.4647L104.894 39.7628Z" fill="#A3C156"/>
<path d="M42.6432 19.9219H29.8501C29.2505 19.9219 28.6755 20.1601 28.2515 20.584C27.8275 21.008 27.5894 21.583 27.5894 22.1826C27.5894 22.7822 27.8275 23.3572 28.2515 23.7812C28.6755 24.2052 29.2505 24.4434 29.8501 24.4434H42.6432C43.2428 24.4434 43.8178 24.2052 44.2418 23.7812C44.6658 23.3572 44.9039 22.7822 44.9039 22.1826C44.9039 21.583 44.6658 21.008 44.2418 20.584C43.8178 20.1601 43.2428 19.9219 42.6432 19.9219Z" fill="#A3C156"/>
<path d="M42.6432 101.561H29.8501C29.2505 101.561 28.6755 101.799 28.2515 102.223C27.8275 102.647 27.5894 103.222 27.5894 103.821C27.5894 104.421 27.8275 104.996 28.2515 105.42C28.6755 105.844 29.2505 106.082 29.8501 106.082H42.6432C43.2428 106.082 43.8178 105.844 44.2418 105.42C44.6658 104.996 44.9039 104.421 44.9039 103.821C44.9039 103.222 44.6658 102.647 44.2418 102.223C43.8178 101.799 43.2428 101.561 42.6432 101.561Z" fill="#A3C156"/>
<path d="M42.645 87.917H17.3779C16.7783 87.917 16.2033 88.1552 15.7793 88.5791C15.3554 89.0031 15.1172 89.5781 15.1172 90.1777C15.1172 90.7773 15.3554 91.3523 15.7793 91.7763C16.2033 92.2003 16.7783 92.4385 17.3779 92.4385H42.645C43.2446 92.4385 43.8196 92.2003 44.2436 91.7763C44.6676 91.3523 44.9057 90.7773 44.9057 90.1777C44.9057 89.5781 44.6676 89.0031 44.2436 88.5791C43.8196 88.1552 43.2446 87.917 42.645 87.917Z" fill="#A3C156"/>
<path d="M42.6442 74.3525H10.063C9.4634 74.3525 8.88837 74.5907 8.4644 75.0147C8.04043 75.4387 7.80225 76.0137 7.80225 76.6133C7.80225 77.2129 8.04043 77.7879 8.4644 78.2119C8.88837 78.6358 9.4634 78.874 10.063 78.874H42.6442C43.2438 78.874 43.8188 78.6358 44.2428 78.2119C44.6668 77.7879 44.9049 77.2129 44.9049 76.6133C44.9049 76.0137 44.6668 75.4387 44.2428 75.0147C43.8188 74.5907 43.2438 74.3525 42.6442 74.3525Z" fill="#A3C156"/>
<path d="M42.645 33.5391H17.3779C16.7783 33.5391 16.2033 33.7772 15.7793 34.2012C15.3554 34.6252 15.1172 35.2002 15.1172 35.7998C15.1172 36.3994 15.3554 36.9744 15.7793 37.3984C16.2033 37.8224 16.7783 38.0605 17.3779 38.0605H42.645C43.2446 38.0605 43.8196 37.8224 44.2436 37.3984C44.6676 36.9744 44.9057 36.3994 44.9057 35.7998C44.9057 35.2002 44.6676 34.6252 44.2436 34.2012C43.8196 33.7772 43.2446 33.5391 42.645 33.5391Z" fill="#A3C156"/>
<path d="M42.6442 47.1436H10.063C9.4634 47.1436 8.88837 47.3817 8.4644 47.8057C8.04043 48.2297 7.80225 48.8047 7.80225 49.4043C7.80225 50.0039 8.04043 50.5789 8.4644 51.0029C8.88837 51.4268 9.4634 51.665 10.063 51.665H42.6442C43.2438 51.665 43.8188 51.4268 44.2428 51.0029C44.6668 50.5789 44.9049 50.0039 44.9049 49.4043C44.9049 48.8047 44.6668 48.2297 44.2428 47.8057C43.8188 47.3817 43.2438 47.1436 42.6442 47.1436Z" fill="#A3C156"/>
<path d="M42.6453 60.748H6.26074C5.66115 60.748 5.08613 60.9862 4.66215 61.4102C4.23818 61.8342 4 62.4092 4 63.0088C4 63.6084 4.23818 64.1834 4.66215 64.6074C5.08613 65.0313 5.66115 65.2695 6.26074 65.2695H42.6453C43.2449 65.2695 43.8199 65.0313 44.2439 64.6074C44.6679 64.1834 44.9061 63.6084 44.9061 63.0088C44.9061 62.4092 44.6679 61.8342 44.2439 61.4102C43.8199 60.9862 43.2449 60.748 42.6453 60.748Z" fill="#A3C156"/>
</g>

</symbol><symbol id="icon-viber" viewBox="0 0 30 30">
<g>
<path fill-rule="evenodd" clip-rule="evenodd" d="M15 0C23.2843 0 30 6.71573 30 15C30 23.2843 23.2843 30 15 30C6.71573 30 0 23.2843 0 15C0 6.71573 6.71573 0 15 0ZM18.996 13.099C18.9231 12.5063 18.7409 12.0409 18.4174 11.6287C17.9973 11.0979 17.4605 10.7801 16.6657 10.5915C16.1477 10.4658 15.9384 10.4803 15.7511 10.6514C15.5766 10.8117 15.5425 11.1331 15.6759 11.3412C15.7696 11.4923 15.8778 11.5464 16.1787 11.6055C16.5794 11.6792 16.8563 11.7749 17.1082 11.9189C17.6429 12.2276 17.8918 12.7107 17.9185 13.4928C17.931 13.86 17.9627 13.9729 18.0909 14.1031C18.3287 14.3412 18.7517 14.2949 18.9312 14.01C18.997 13.9026 19.0071 13.8559 19.014 13.6065C19.0186 13.4522 19.012 13.2224 18.996 13.099ZM19.0032 9.46257C20.2743 10.4905 20.9846 11.9514 21.0902 13.7673C21.1346 14.4825 21.0756 14.7154 20.8232 14.8481C20.5956 14.971 20.3376 14.9306 20.1606 14.7455C20.0434 14.6251 19.9983 14.4604 20 14.1689C20.0052 13.3628 19.8195 12.4626 19.5175 11.8379C19.168 11.1109 18.6278 10.4922 17.9482 10.0399C17.353 9.64263 16.5652 9.37428 15.8014 9.30745C15.3059 9.26411 15.129 9.18019 15.0339 8.94268C14.975 8.8006 14.9905 8.55497 15.0596 8.44495C15.1249 8.3435 15.2714 8.23132 15.3751 8.20166C15.4849 8.16964 16.1248 8.22563 16.4724 8.29471C17.4213 8.48785 18.287 8.885 19.0032 9.46257ZM23.4077 20.7602C23.3722 20.6564 23.2893 20.4963 23.2301 20.4044C22.8571 19.8411 20.8529 18.2726 19.8522 17.7597C19.2809 17.4662 18.8575 17.3684 18.5437 17.4602C18.2062 17.5551 18.0286 17.7122 17.4632 18.4149C17.2352 18.6966 17.0014 18.9605 16.9392 19.002C16.7852 19.1087 16.4833 19.1947 16.2701 19.1947C15.7757 19.1917 14.8787 18.8715 14.1889 18.4505C13.6531 18.1244 12.9663 17.5403 12.4393 16.9621C11.8176 16.2832 11.3943 15.6843 11.0598 15.0083C10.6276 14.1396 10.518 13.6088 10.6986 13.2204C10.743 13.1226 10.8022 13.0188 10.8288 12.9862C10.8555 12.9566 11.1338 12.7282 11.4416 12.4792C12.0456 11.9989 12.1433 11.8892 12.2558 11.5601C12.3979 11.142 12.3594 10.7151 12.1403 10.2852C11.9716 9.95901 11.5305 9.24744 11.2108 8.78788C10.7874 8.18306 9.73349 6.89036 9.52327 6.71538C9.14435 6.40706 8.65888 6.35366 8.12299 6.56125C7.5576 6.78066 6.49773 7.63454 6.04478 8.2305C5.63624 8.7701 5.47938 9.15255 5.45568 9.6566C5.43497 10.0717 5.47048 10.2436 5.68956 10.7744C7.40365 14.9371 9.96142 18.2608 13.4755 20.8996C15.3109 22.2782 17.2145 23.3278 19.1891 24.0454C20.3407 24.4634 20.841 24.4841 21.4301 24.1402C21.6788 23.992 22.2946 23.3604 22.638 22.9009C23.2064 22.1359 23.4166 21.7831 23.4758 21.5014C23.5172 21.3087 23.4847 20.9737 23.4077 20.7602ZM22.651 11.3753C23.0116 12.3146 23.1845 13.1572 23.2225 14.1843C23.2285 14.3872 23.2257 14.759 23.2126 15.0108C23.1852 15.4936 23.159 15.5895 23.02 15.7172C22.7966 15.9268 22.3612 15.8769 22.196 15.6243C22.1098 15.4888 22.0977 15.3895 22.1144 14.8254C22.1623 13.157 21.8249 11.8507 21.012 10.5444C20.0406 8.97728 18.5877 7.92157 16.6983 7.40508C16.2165 7.27362 15.8104 7.19349 15.1789 7.10848C14.7676 7.05463 14.6775 7.03187 14.5759 6.96938C14.2692 6.77294 14.2652 6.27552 14.5709 6.07609C14.7287 5.97082 14.845 5.96611 15.3593 6.03197C16.8673 6.22042 18.2129 6.66852 19.3186 7.34564C20.1111 7.83163 20.6108 8.26822 21.2542 9.03286C21.9347 9.84837 22.295 10.4513 22.651 11.3753Z" fill="black"/>
</g>
</symbol><symbol id="icon-w-app-color" viewBox="0 0 58 58">
<path d="M0 58L4.988 43.037C2.457 38.78 1 33.812 1 28.5C1 12.76 13.76 0 29.5 0C45.24 0 58 12.76 58 28.5C58 44.24 45.24 57 29.5 57C24.711 57 20.201 55.813 16.24 53.727L0 58Z" fill="#2CB742"/>
<path d="M47.6828 37.9852C46.3669 35.4982 41.5139 32.6542 41.5139 32.6542C40.4159 32.0282 39.0909 31.9582 38.4649 33.0742C38.4649 33.0742 36.8879 34.9652 36.4869 35.2372C34.6549 36.4782 32.9579 36.4302 31.2449 34.7172L27.2639 30.7362L23.2829 26.7552C21.5699 25.0422 21.5219 23.3452 22.7629 21.5132C23.0349 21.1122 24.9259 19.5352 24.9259 19.5352C26.0419 18.9082 25.9719 17.5842 25.3459 16.4862C25.3459 16.4862 22.5019 11.6332 20.0149 10.3172C18.9569 9.75721 17.6579 9.95321 16.8119 10.7992L15.0539 12.5572C9.47685 18.1342 12.2229 24.4302 17.7999 30.0072L22.8969 35.1042L27.9939 40.2012C33.5709 45.7782 39.8669 48.5242 45.4439 42.9472L47.2019 41.1892C48.0479 40.3412 48.2429 39.0422 47.6828 37.9852Z" fill="white"/>
</symbol><symbol id="icon-wapp" viewBox="0 0 30 30">
<g>
<path fill-rule="evenodd" clip-rule="evenodd" d="M0 15C0 23.2843 6.71573 30 15 30C23.2843 30 30 23.2843 30 15C30 6.71573 23.2843 0 15 0C6.71573 0 0 6.71573 0 15ZM24.4137 14.426C24.4117 19.3427 20.412 23.3434 15.4943 23.3454H15.4906C13.9978 23.3449 12.531 22.9703 11.2282 22.2597L6.49985 23.5001L7.76524 18.8781C6.98469 17.5254 6.57397 15.991 6.57463 14.419C6.57659 9.50113 10.5779 5.50007 15.4942 5.50007C17.8803 5.5011 20.1197 6.42999 21.8037 8.11596C23.4877 9.80184 24.4146 12.0428 24.4137 14.426Z" fill="black"/>
<path fill-rule="evenodd" clip-rule="evenodd" d="M8.64138 21.3813L11.4472 20.6452L11.718 20.8059C12.8562 21.4814 14.161 21.8388 15.4912 21.8393H15.4943C19.5804 21.8393 22.906 18.5135 22.9077 14.4257C22.9084 12.4448 22.1381 10.5822 20.7384 9.18093C19.3387 7.77962 17.4773 7.00752 15.4972 7.00684C11.4079 7.00684 8.08219 10.3323 8.08057 14.4197C8.07999 15.8205 8.47194 17.1848 9.21404 18.3651L9.39031 18.6456L8.64138 21.3813ZM19.683 16.3465C19.8384 16.4216 19.9434 16.4724 19.9882 16.5472C20.0439 16.6401 20.0439 17.0863 19.8583 17.607C19.6725 18.1276 18.7821 18.6027 18.3539 18.6667C17.9699 18.7241 17.484 18.748 16.9502 18.5784C16.6265 18.4757 16.2114 18.3385 15.6796 18.1089C13.5903 17.2067 12.1783 15.1817 11.9115 14.799C11.8928 14.7722 11.8797 14.7534 11.8724 14.7437L11.8706 14.7413C11.7527 14.5839 10.9624 13.5295 10.9624 12.4382C10.9624 11.4116 11.4667 10.8735 11.6988 10.6259C11.7147 10.6089 11.7293 10.5933 11.7424 10.579C11.9467 10.3559 12.1882 10.3001 12.3367 10.3001C12.4853 10.3001 12.634 10.3015 12.7639 10.308C12.7799 10.3088 12.7966 10.3087 12.8138 10.3086C12.9437 10.3078 13.1056 10.3069 13.2653 10.6905C13.3268 10.8382 13.4167 11.0571 13.5115 11.288C13.7033 11.7549 13.9152 12.2707 13.9524 12.3454C14.0082 12.4569 14.0453 12.587 13.971 12.7358C13.9599 12.7581 13.9496 12.7792 13.9397 12.7993C13.8839 12.9132 13.8429 12.997 13.7482 13.1076C13.7109 13.1511 13.6724 13.1979 13.634 13.2448C13.5573 13.3382 13.4806 13.4316 13.4139 13.4981C13.3023 13.6092 13.1861 13.7298 13.3161 13.9529C13.4461 14.176 13.8934 14.9058 14.556 15.4968C15.2682 16.132 15.8872 16.4005 16.2009 16.5366C16.2622 16.5632 16.3118 16.5847 16.3482 16.603C16.571 16.7146 16.701 16.6959 16.831 16.5472C16.9611 16.3985 17.3882 15.8964 17.5367 15.6733C17.6853 15.4503 17.8339 15.4874 18.0382 15.5618C18.2425 15.6362 19.3382 16.1753 19.5611 16.2869C19.6046 16.3086 19.6452 16.3283 19.683 16.3465Z" fill="black"/>
</g>
</symbol><symbol id="icon-watch" viewBox="0 0 50 50">
<path d="M24.8843 49.7344C11.1812 49.7344 0.0327148 38.586 0.0327148 24.8828C0.0327148 11.1797 11.1812 0.03125 24.8843 0.03125C38.5874 0.03125 49.7359 11.1797 49.7359 24.8828C49.7359 38.586 38.5874 49.7344 24.8843 49.7344ZM24.8843 2.75345C12.6826 2.75345 2.75701 12.6811 2.75701 24.8828C2.75701 37.0846 12.6826 47.0122 24.8843 47.0122C37.086 47.0122 47.0116 37.0846 47.0116 24.8828C47.0116 12.6811 37.086 2.75345 24.8843 2.75345Z"/>
<path d="M22.2855 24.4537C22.0196 24.4537 21.7495 24.3762 21.5149 24.2129L12.1548 17.7571C11.5349 17.3299 11.38 16.4818 11.8072 15.8641C12.2322 15.2464 13.0803 15.0872 13.7001 15.5144L23.0603 21.9702C23.6801 22.3974 23.8351 23.2455 23.4079 23.8632C23.1441 24.2485 22.719 24.4537 22.2855 24.4537Z"/>
<path d="M28.4214 28.6879C28.1555 28.6879 27.8854 28.6104 27.6508 28.4471L26.7148 27.8C26.095 27.3728 25.94 26.5248 26.3672 25.9071C26.7923 25.2914 27.6404 25.1323 28.2602 25.5594L29.1962 26.2065C29.816 26.6337 29.971 27.4817 29.5438 28.0995C29.2821 28.4827 28.8549 28.6879 28.4214 28.6879Z"/>
<path d="M27.5587 24.5747C27.1043 24.5747 26.6604 24.3486 26.4007 23.934C26.005 23.2953 26.1976 22.4556 26.8363 22.0577L40.0222 13.8304C40.6546 13.4305 41.4964 13.6273 41.8984 14.2639C42.2942 14.9025 42.1015 15.7422 41.4629 16.1401L28.277 24.3674C28.055 24.5077 27.8058 24.5747 27.5587 24.5747Z"/>
<path d="M20.9704 28.6881C20.516 28.6881 20.0721 28.462 19.8124 28.0474C19.4167 27.4108 19.6093 26.569 20.2459 26.1711L21.4855 25.3963C22.1242 24.9964 22.9618 25.1911 23.3618 25.8298C23.7575 26.4664 23.5649 27.3082 22.9283 27.706L21.6887 28.4808C21.4646 28.6211 21.2154 28.6881 20.9704 28.6881Z"/>
<path d="M24.8816 4.8162C24.1299 4.8162 23.5205 4.20685 23.5205 3.4551V1.3611C23.5205 0.609354 24.1299 0 24.8816 0C25.6334 0 26.2427 0.609354 26.2427 1.3611V3.4551C26.2427 4.20685 25.6334 4.8162 24.8816 4.8162Z"/>
<path d="M24.8816 49.7664C24.1299 49.7664 23.5205 49.157 23.5205 48.4053V46.3113C23.5205 45.5595 24.1299 44.9502 24.8816 44.9502C25.6334 44.9502 26.2427 45.5595 26.2427 46.3113V48.4053C26.2427 49.157 25.6334 49.7664 24.8816 49.7664Z"/>
<path d="M3.45719 26.2437H1.3611C0.609354 26.2437 0 25.6343 0 24.8826C0 24.1308 0.609354 23.5215 1.3611 23.5215H3.45719C4.20894 23.5215 4.81829 24.1308 4.81829 24.8826C4.81829 25.6343 4.20894 26.2437 3.45719 26.2437Z"/>
<path d="M48.4045 26.2437H46.3084C45.5566 26.2437 44.9473 25.6343 44.9473 24.8826C44.9473 24.1308 45.5566 23.5215 46.3084 23.5215H48.4045C49.1562 23.5215 49.7656 24.1308 49.7656 24.8826C49.7656 25.6343 49.1583 26.2437 48.4045 26.2437Z"/>
<path d="M24.8821 29.3999C22.3924 29.3999 20.3633 27.3729 20.3633 24.8831C20.3633 22.3912 22.3924 20.3643 24.8821 20.3643C27.3719 20.3643 29.401 22.3912 29.401 24.8831C29.401 27.375 27.3719 29.3999 24.8821 29.3999ZM24.8821 23.0865C23.8917 23.0865 23.0876 23.8926 23.0876 24.8831C23.0876 25.8736 23.8938 26.6777 24.8821 26.6777C25.8705 26.6777 26.6767 25.8715 26.6767 24.8831C26.6767 23.8926 25.8726 23.0865 24.8821 23.0865Z"/>
</symbol><symbol id="icon-wechat" viewBox="0 0 30 30">
<g>
<path fill-rule="evenodd" clip-rule="evenodd" d="M0 15C0 6.71573 6.71573 0 15 0C23.2843 0 30 6.71573 30 15C30 23.2843 23.2843 30 15 30C6.71573 30 0 23.2843 0 15ZM18.9015 12.0534C19.0025 12.0534 19.1025 12.0544 19.202 12.0599C18.676 9.19343 15.7155 6.99993 12.1425 6.99993C8.1975 6.99993 5 9.67443 5 12.9734C5 14.9079 6.099 16.6274 7.8035 17.7189L7.869 17.7604L7.179 19.9219L9.761 18.6069C9.761 18.6069 9.842 18.6299 9.8825 18.6419C10.592 18.8394 11.353 18.9464 12.1425 18.9464C12.3035 18.9464 12.4635 18.9399 12.6225 18.9319C12.476 18.4774 12.3955 17.9999 12.3955 17.5069C12.3955 14.4944 15.3095 12.0534 18.9015 12.0534ZM18.9557 22.5891C15.6227 22.5891 12.9202 20.3296 12.9202 17.5421C12.9202 14.7556 15.6227 12.4961 18.9557 12.4961C22.2872 12.4961 24.9887 14.7556 24.9887 17.5421C24.9887 19.1771 24.0597 20.6296 22.6202 21.5516L22.5647 21.5861L23.1477 23.4131L20.9672 22.3011C20.9672 22.3011 20.8987 22.3216 20.8642 22.3306C20.2652 22.4981 19.6222 22.5891 18.9557 22.5891Z" fill="black"/>
<path d="M14.628 9.94531C15.182 9.94531 15.6305 10.3793 15.6305 10.9158C15.6305 11.4518 15.182 11.8873 14.628 11.8873C14.0735 11.8873 13.6255 11.4518 13.6255 10.9158C13.6255 10.3793 14.0735 9.94531 14.628 9.94531Z" fill="black"/>
<path d="M20.2075 15.8039C20.2075 15.3519 20.5865 14.9844 21.0545 14.9844C21.523 14.9844 21.902 15.3519 21.902 15.8039C21.902 16.2579 21.523 16.6259 21.0545 16.6259C20.5865 16.6259 20.2075 16.2579 20.2075 15.8039Z" fill="black"/>
<path d="M16.0078 15.8039C16.0078 15.3519 16.3878 14.9844 16.8553 14.9844C17.3238 14.9844 17.7033 15.3519 17.7033 15.8039C17.7033 16.2579 17.3238 16.6259 16.8553 16.6259C16.3878 16.6259 16.0078 16.2579 16.0078 15.8039Z" fill="black"/>
<path d="M9.6573 11.8873C9.1033 11.8873 8.6543 11.4518 8.6543 10.9158C8.6543 10.3793 9.1033 9.94531 9.6573 9.94531C10.2113 9.94531 10.6613 10.3793 10.6613 10.9158C10.6613 11.4518 10.2113 11.8873 9.6573 11.8873Z" fill="black"/>
</g>
</symbol><symbol id="icon-world" viewBox="0 0 41 50">
<path d="M39.8979 33.9159L34.7994 28.8173C37.4275 25.8738 39.0569 21.9842 39.0569 17.7792C39.0569 8.63338 31.5931 1.16951 22.4472 1.16951C18.1897 1.16951 14.3526 2.79895 11.4091 5.42707L6.25798 0.275953C5.89005 -0.0919842 5.31186 -0.0919842 4.94392 0.275953C4.57599 0.64389 4.57599 1.22208 4.94392 1.59001L5.94261 2.5887C-2.152 11.3666 -1.99432 25.0854 6.5208 33.6531C10.5681 37.6478 15.8243 39.9606 21.4485 40.1708V48.1077H14.0898C13.5642 48.1077 13.1437 48.5283 13.1437 49.0539C13.1437 49.5795 13.5642 50 14.0898 50H30.6469C31.1726 50 31.5931 49.5795 31.5931 49.0539C31.5931 48.5283 31.1726 48.1077 30.6469 48.1077H23.2882V40.1708C28.6496 39.9606 33.643 37.8581 37.5326 34.2838L38.5313 35.2825C38.689 35.4402 38.9518 35.5453 39.1621 35.5453C39.4249 35.5453 39.6351 35.4402 39.7928 35.2825C40.2659 34.862 40.2659 34.2838 39.8979 33.9159ZM19.1883 15.8344L24.2869 20.933L20.2396 24.9803C19.2935 24.2444 18.3999 23.456 17.5063 22.615C16.6128 21.7214 15.8243 20.8279 15.141 19.8817L19.1883 15.8344ZM14.0372 18.41C11.304 14.3627 10.2527 10.3679 11.4617 8.10775L17.8743 14.5204L14.0372 18.41ZM25.6535 22.2996L32.0661 28.7122C30.8046 29.3955 28.9124 29.3955 26.6522 28.6597C25.0753 28.134 23.3933 27.2405 21.7639 26.1367L25.6535 22.2996ZM33.3802 27.3982L26.915 20.9855L30.8046 17.0959C31.9084 18.7254 32.7494 20.3548 33.3276 21.9842C34.0635 24.2444 34.0635 26.1367 33.3802 27.3982ZM25.6535 19.6715L20.555 14.5729L24.6023 10.5256C25.5484 11.2615 26.442 12.0499 27.3355 12.9435C28.2291 13.8371 29.0175 14.7306 29.7008 15.6767L25.6535 19.6715ZM19.1883 13.2589L12.7757 6.84625C13.4065 6.53088 14.0898 6.26807 14.9308 6.26807C17.191 6.26807 20.0819 7.42444 23.0254 9.36925L19.1883 13.2589ZM9.14892 11.3141C9.41173 13.8371 10.6732 16.7806 12.7232 19.724L8.88611 23.5611C8.09767 21.774 7.67717 19.8292 7.67717 17.7267C7.67717 15.4665 8.20279 13.2589 9.14892 11.3141ZM13.827 21.2484C14.5628 22.1419 15.3513 23.088 16.2448 23.9816C17.1384 24.8752 18.032 25.6636 18.9781 26.3995L14.9308 30.4468C12.8283 29.1853 11.0937 27.4507 9.83223 25.3482L13.827 21.2484ZM20.4498 27.4507C22.2895 28.7648 24.2343 29.7635 26.074 30.3942C27.0727 30.7096 28.0188 30.9198 28.9124 30.9724C26.9676 31.9185 24.76 32.4967 22.4472 32.4967C20.3973 32.4967 18.3999 32.0762 16.6128 31.2878L20.4498 27.4507ZM35.6404 24.2444C35.5353 23.3509 35.3776 22.4047 35.0622 21.406C34.4314 19.5664 33.4328 17.6741 32.1187 15.7819L35.9558 11.9448C36.7442 13.7319 37.1647 15.6767 37.1647 17.7792C37.1647 20.092 36.6391 22.2996 35.6404 24.2444ZM35.0622 10.2102L31.0149 14.2576C30.279 13.3114 29.4906 12.4179 28.597 11.5243C27.7035 10.6307 26.8099 9.84231 25.8638 9.10644L29.9111 5.05913C32.0661 6.37319 33.8533 8.10775 35.0622 10.2102ZM28.2291 4.21813L24.392 8.05519C21.4485 6.00526 18.505 4.74376 15.982 4.48095C17.9268 3.53482 20.1345 2.95664 22.4472 2.95664C24.4971 3.0092 26.442 3.4297 28.2291 4.21813ZM22.4472 38.3837C16.9282 38.3837 11.7245 36.2286 7.83486 32.339C0.0556189 24.5072 -0.154631 11.9448 7.25667 3.8502L10.095 6.68857C7.46692 9.63206 5.83748 13.5217 5.83748 17.7267C5.83748 26.8725 13.3013 34.3364 22.4472 34.3364C26.7048 34.3364 30.5418 32.707 33.4853 30.0788L36.3237 32.9172C32.4866 36.4389 27.5983 38.3837 22.4472 38.3837Z"/>
</symbol></svg>